<svg id="Layer_5" enable-background="new 0 0 64 64" height="512" viewBox="0 0 64 64" width="512" xmlns="http://www.w3.org/2000/svg" xmlns:xlink="http://www.w3.org/1999/xlink"><linearGradient id="SVGID_1_" gradientUnits="userSpaceOnUse" x1="32" x2="32" y1="63" y2="1"><stop offset="0" stop-color="#9f2fff"/><stop offset="1" stop-color="#0bb1d3"/></linearGradient><path d="m57 13h-2v-2h2zm-2 4h2v-2h-2zm2-2h2v-2h-2zm-4-2v2h2v-2zm-4-2h-2v2h2zm-2 6h2v-2h-2zm2-2h2v-2h-2zm-4-2v2h2v-2zm-4-2h-2v2h2zm-2 6h2v-2h-2zm2-2h2v-2h-2zm-4-2v2h2v-2zm-4-2h-2v2h2zm-2 6h2v-2h-2zm2-2h2v-2h-2zm-4-2v2h2v-2zm34-3v8c0 2.757-2.243 5-5 5h-17.695c2.834 1.992 4.695 5.28 4.695 9v7.184c1.161.414 2 1.514 2 2.816v18c0 1.654-1.346 3-3 3h-20c-1.654 0-3-1.346-3-3v-18c0-1.302.839-2.402 2-2.816v-7.184c0-3.72 1.861-7.008 4.695-9h-4.336c-2.367 2.46-5.684 4-9.359 4-7.168 0-13-5.832-13-13s5.832-13 13-13c3.675 0 6.992 1.54 9.359 4h34.641c2.757 0 5 2.243 5 5zm-57.474 11.005c.832-2.356 2.609-4.239 4.853-5.232-1.442-1.096-2.379-2.825-2.379-4.773 0-3.309 2.691-6 6-6s6 2.691 6 6c0 1.948-.937 3.677-2.379 4.773 2.244.993 4.021 2.876 4.853 5.232 1.577-1.904 2.526-4.345 2.526-7.005 0-6.065-4.935-11-11-11s-11 4.935-11 11c0 2.66.949 5.101 2.526 7.005zm8.474-6.005c2.206 0 4-1.794 4-4s-1.794-4-4-4-4 1.794-4 4 1.794 4 4 4zm0 10c2.588 0 4.966-.904 6.847-2.406-.658-3.223-3.51-5.594-6.847-5.594s-6.189 2.371-6.847 5.594c1.881 1.502 4.259 2.406 6.847 2.406zm31 17c0-.552-.448-1-1-1h-20c-.552 0-1 .448-1 1v18c0 .552.448 1 1 1h20c.552 0 1-.448 1-1zm-7-10c0-2.206-1.794-4-4-4s-4 1.794-4 4v7h8zm-4-9c-4.963 0-9 4.038-9 9v7h3v-7c0-3.309 2.691-6 6-6s6 2.691 6 6v7h3v-7c0-4.962-4.037-9-9-9zm27-13c0-1.654-1.346-3-3-3h-33.063c1.299 2.023 2.063 4.422 2.063 7s-.764 4.977-2.063 7h33.063c1.654 0 3-1.346 3-3zm-22 38c0 1.563-.754 3.04-2 3.979v4.021c0 1.654-1.346 3-3 3s-3-1.346-3-3v-4.02c-1.599-1.199-2.336-3.227-1.849-5.222.437-1.783 1.874-3.205 3.662-3.621 1.525-.356 3.091-.01 4.294.945s1.893 2.384 1.893 3.918zm-2 0c0-.921-.414-1.777-1.137-2.351-.539-.429-1.181-.65-1.857-.65-.243 0-.49.028-.739.086-1.044.243-1.917 1.107-2.172 2.148-.329 1.345.224 2.658 1.408 3.348l.497.289v5.13c0 .552.448 1 1 1s1-.448 1-1v-5.13l.497-.289c.941-.548 1.503-1.513 1.503-2.581zm19.822-15.124 1.984.248c-.501 4.022-1.999 7.869-4.326 11.192.328.481.52 1.06.52 1.684 0 1.654-1.346 3-3 3s-3-1.346-3-3 1.346-3 3-3c.302 0 .588.058.863.142 2.129-3.051 3.499-6.578 3.959-10.266zm-3.822 13.124c0-.552-.448-1-1-1s-1 .448-1 1 .448 1 1 1 1-.448 1-1zm5.979-14.959c.014-.345.021-.692.021-1.041 0-.323-.006-.645-.019-.964l-1.998.076c.011.294.017.591.017.888 0 .321-.007.641-.02.959zm-45.979 14.959c0-.624.192-1.203.519-1.684-2.327-3.324-3.824-7.171-4.326-11.192l1.984-.248c.46 3.687 1.83 7.214 3.959 10.265.276-.083.562-.141.864-.141 1.654 0 3 1.346 3 3s-1.346 3-3 3-3-1.346-3-3zm3-1c-.552 0-1 .448-1 1s.448 1 1 1 1-.448 1-1-.448-1-1-1zm-6.981-15.964c-.013.319-.019.641-.019.964 0 .349.007.696.021 1.041l1.998-.082c-.012-.318-.019-.638-.019-.959 0-.297.006-.594.017-.888z" fill="url(#SVGID_1_)"/></svg>