<svg id="Слой_1" data-name="Слой 1" xmlns="http://www.w3.org/2000/svg" xmlns:xlink="http://www.w3.org/1999/xlink" viewBox="0 0 360 272"><defs><style>.cls-1{fill:none;}.cls-2{clip-path:url(#clip-path);}.cls-3{fill:#aadfe8;}.cls-4{fill:#2fb4d3;}.cls-5{fill:#f5f9fa;}.cls-6{fill:#daeeef;}.cls-7{fill:#fff;}.cls-8{fill:#f7d203;}.cls-9{fill:#1f87ad;}.cls-10{fill:#40aacf;}.cls-11{fill:#109d58;}</style><clipPath id="clip-path"><rect class="cls-1" x="-0.5" y="-95" width="361" height="367"/></clipPath></defs><title>Google Sheets API-2-01</title><g class="cls-2"><circle class="cls-3" cx="298.96" cy="215.04" r="140.33"/><path class="cls-4" d="M408.31,203.52v73a17.26,17.26,0,0,1-17.25,17.27H247.79a17.26,17.26,0,0,1-17.27-17.25h0V150.43a17.26,17.26,0,0,1,17.22-17.29H391a17.26,17.26,0,0,1,17.27,17.25h0v53.13h0Z"/><path class="cls-4" d="M402.49,150.43A11.44,11.44,0,0,0,391,139H247.79a11.44,11.44,0,0,0-11.44,11.44h0v18.11l166.14-.77V150.43h0Z"/><path class="cls-5" d="M236.35,168.55V276.47a11.44,11.44,0,0,0,11.44,11.44H391a11.44,11.44,0,0,0,11.44-11.44h0V167.71Z"/><circle class="cls-5" cx="252.08" cy="151.69" r="4.28"/><circle class="cls-5" cx="264.51" cy="151.69" r="4.28"/><circle class="cls-5" cx="276.93" cy="151.69" r="4.28"/><path class="cls-5" d="M303.44,149.09h86a2.1,2.1,0,0,1,2.1,2.1h0v1.05a2.17,2.17,0,0,1-2.1,2.17h-86a2.2,2.2,0,0,1-2.26-2.13v-1.05A2.26,2.26,0,0,1,303.44,149.09Z"/><path class="cls-6" d="M247.79,287.85H391a11.44,11.44,0,0,0,11.44-11.44h0V204.08a111.54,111.54,0,0,0-47.89-3.4c-35.08,5.26-50.42,27.87-77.59,39.53a63.68,63.68,0,0,1-40.65,3.3v32.82a11.44,11.44,0,0,0,11.32,11.51h0.16Z"/><path class="cls-5" d="M318.08,204.15c1.4,0,2.26.84,1.9,2a1.48,1.48,0,0,1-1.69,1.05,12.38,12.38,0,0,0-11.79,10.19q-0.19,1-.28,2A1.44,1.44,0,0,1,305,221h-0.39a1.56,1.56,0,0,1-1.47-1.62v-0.14a15.12,15.12,0,0,1,6.79-12.45A16.4,16.4,0,0,1,318.08,204.15Z"/><path class="cls-7" d="M245.9,210.46V261.8a3,3,0,0,0,2.52,3.3h64.25a3.08,3.08,0,0,0,2.52-3.3V210.46a3,3,0,0,0-2.52-3.3H248.43a2.93,2.93,0,0,0-2.52,3.29h0Z"/><path class="cls-7" d="M321.83,210.09v32.72a2.83,2.83,0,0,0,2.52,2.87h64.32a2.91,2.91,0,0,0,2.52-2.87V210.09a2.83,2.83,0,0,0-2.52-2.87H324.48A3,3,0,0,0,321.83,210.09Z"/><rect class="cls-5" x="273.91" y="220.37" width="15.8" height="4.64"/><rect class="cls-3" x="273.91" y="230.27" width="33.07" height="4.36"/><rect class="cls-3" x="273.71" y="238.27" width="38.06" height="4.36"/><rect class="cls-3" x="273.71" y="246.28" width="25.42" height="4.36"/><path class="cls-8" d="M253.77,220h14a2.37,2.37,0,0,1,2.39,2.34h0v26.21a2.37,2.37,0,0,1-2.34,2.39h-14a2.37,2.37,0,0,1-2.39-2.34h0V222.4A2.46,2.46,0,0,1,253.77,220Z"/><path class="cls-8" d="M322.58,251.9h11.09a0.7,0.7,0,0,1,.7.7h0v11.24a0.7,0.7,0,0,1-.7.7H322.58a0.7,0.7,0,0,1-.7-0.7h0V252.6a0.7,0.7,0,0,1,.7-0.7h0Z"/><path class="cls-9" d="M341.53,251.9h11.09a0.7,0.7,0,0,1,.7.7h0v11.24a0.7,0.7,0,0,1-.7.7H341.53a0.7,0.7,0,0,1-.7-0.7h0V252.6a0.7,0.7,0,0,1,.7-0.7h0Z"/><path class="cls-3" d="M248.07,188.91H389.54a2.26,2.26,0,0,1,2.17,2.26v5.41a2.17,2.17,0,0,1-2,2.26H248.07a2.26,2.26,0,0,1-2.17-2.26v-5.41A2.26,2.26,0,0,1,248.07,188.91Z"/><path class="cls-10" d="M356.07,226.41a0.74,0.74,0,0,1,0-.92l3.4-4.43a0.38,0.38,0,0,1,.51-0.18h0a0.27,0.27,0,0,1,.14.14l9,11.91c0.22,0.28.07,0.49-.22,0.49l-22.54-.22c-0.35,0-.42-0.22-0.22-0.49l5.66-7.23a0.45,0.45,0,0,1,.62-0.16h0a0.27,0.27,0,0,1,.14.14l4.28,5.34a0.66,0.66,0,0,0,.84.14h0l0.77-.57a0.66,0.66,0,0,0,.14-0.84Z"/><circle class="cls-11" cx="227.71" cy="201.84" r="30.41"/></g><path class="cls-7" d="M241.83,194.93c0,1.36,0,2.72,0,4.07,0,0.29,0,.41-0.38.4-0.76,0-1.52,0-2.28,0a2.3,2.3,0,0,0-2.24,1.44,2.64,2.64,0,0,0,.4,2.85,2.45,2.45,0,0,0,2,.81c0.75,0,1.49,0,2.24,0,0.22,0,.29,0,0.29.28q0,4.19,0,8.39c0,0.27-.1.29-0.32,0.29h-7c-0.28,0-.37.05-0.39,0.36a5.1,5.1,0,0,1-10.14.4c-0.11-.75-0.11-0.75-0.87-0.75-2.17,0-4.34,0-6.51,0-0.3,0-.37-0.07-0.37-0.37,0-1.89,0-3.78,0-5.67,0-.29-0.07-0.36-0.36-0.38a5.1,5.1,0,0,1-.39-10.14c0.75-.11.75-0.11,0.75-0.87,0-1.74,0-3.49,0-5.23,0-.31.09-0.36,0.37-0.36h6.87c0.31,0,.44,0,0.46-0.41a5.1,5.1,0,0,1,10.13-.34c0.11,0.74.11,0.74,0.88,0.74h6.47c0.29,0,.4,0,0.4.38C241.82,192.18,241.83,193.56,241.83,194.93ZM222.68,193c-1.16,0-2.32,0-3.47,0-0.3,0-.4.06-0.39,0.38,0,1.9,0,3.81,0,5.71,0,0.24,0,.32-0.3.31-0.74,0-1.49,0-2.24,0a2.44,2.44,0,0,0-2,.82,2.64,2.64,0,0,0-.39,2.85,2.3,2.3,0,0,0,2.24,1.44c0.76,0,1.52,0,2.28,0,0.3,0,.37.06,0.37,0.37,0,1.89,0,3.78,0,5.67,0,0.3.06,0.37,0.37,0.37h7c0.26,0,.33.06,0.33,0.32,0,0.75,0,1.49,0,2.24a2.42,2.42,0,0,0,.83,2,2.65,2.65,0,0,0,2.81.38,2.3,2.3,0,0,0,1.45-2.23c0-.76,0-1.52,0-2.28,0-.32.08-0.39,0.39-0.39h6.95c0.28,0,.35-0.07.34-0.35,0-1,0-1.94,0-2.91,0-.45-0.07-0.66-0.55-0.61a1.69,1.69,0,0,1-.51-0.07,5.11,5.11,0,0,1,.76-10.1c0.26,0,.29-0.1.29-0.33,0-1,0-2.05,0-3.08,0-.34-0.06-0.46-0.44-0.46-2.28,0-4.55,0-6.83,0-0.32,0-.43,0-0.42-0.4,0-.72,0-1.44,0-2.16a2.43,2.43,0,0,0-.8-1.93,2.64,2.64,0,0,0-2.84-.42,2.29,2.29,0,0,0-1.46,2.23c0,0.77,0,1.54,0,2.32,0,0.27-.05.36-0.34,0.35C225,193,223.84,193,222.68,193Z"/></svg>