<svg id="Слой_1" data-name="Слой 1" xmlns="http://www.w3.org/2000/svg" viewBox="0 0 200 45"><defs><style>.cls-1{fill:#0b9601;}.cls-2{fill:#0c9602;}.cls-3{fill:#030303;}.cls-4{fill:#040404;}.cls-5{fill:#0e9704;}.cls-6{fill:#020202;}.cls-7{fill:#0d9703;}.cls-8{fill:#050505;}</style></defs><title>Безымянный-1</title><path class="cls-1" d="M22.92,19.05c-2,0-3.9,0-5.85,0-0.36,0-.45.1-0.44,0.45,0,3.9,0,7.81,0,11.71,0,0.36-.06.48-0.46,0.48q-2.72,0-5.45,0c-0.37,0-.43-0.12-0.43-0.45,0-3.9,0-7.81,0-11.71,0-.37-0.09-0.47-0.47-0.47-2,0-3.9,0-5.85,0V12.74q9.23,0,18.46,0c0.39,0,.5.08,0.49,0.48,0,1.95,0,3.9,0,5.85h0Z"/><path class="cls-1" d="M29.21,19a0.92,0.92,0,0,1,0,.49c0,1.8,0,3.6,0,5.4,0,0.36.1,0.45,0.45,0.45l11.71,0c0.39,0,.5.09,0.5,0.49,0,1.8,0,3.6,0,5.4,0,0.31,0,.44-0.41.43q-9.07,0-18.15,0c-0.33,0-.42-0.08-0.42-0.42,0-3.87,0-7.75,0-11.62,0-.19,0-0.39,0-0.58h0l6.31,0h0Z"/><path class="cls-2" d="M29.22,19q0-2.07,0-4.14c0-.6,0-1.2,0-1.8,0-.27.05-0.36,0.34-0.36h12a0.27,0.27,0,0,1,.33.33q0,2.84,0,5.68a0.25,0.25,0,0,1-.3.31L29.26,19h0Z"/><path class="cls-3" d="M119,14a8.5,8.5,0,0,1,2.85.48c2.08,0.76,3.09,2.45,3.84,4.37,0.11,0.28-.08.32-0.25,0.39-1.23.48-2.46,1-3.69,1.46-0.31.13-.41,0-0.52-0.26a7.39,7.39,0,0,0-.58-1.13,2.42,2.42,0,0,0-4.14,0,5.38,5.38,0,0,0-.74,2.41,8.48,8.48,0,0,0,.42,4.12,2.62,2.62,0,0,0,4.72.65l0.09-.11a2.41,2.41,0,0,1,.77-1,3,3,0,0,1,1.32.58c0.73,0.38,1.45.8,2.2,1.15,0.45,0.21.5,0.4,0.26,0.84a7.67,7.67,0,0,1-7.94,3.92A7.29,7.29,0,0,1,111,26.05a11.62,11.62,0,0,1,.51-7.57C112.82,15.57,115.45,14,119,14Z"/><path class="cls-4" d="M188.2,19.45a5.33,5.33,0,0,1,4.21-1,3.51,3.51,0,0,1,2.83,2.39,7.14,7.14,0,0,1,.44,2.5c0,2.6,0,5.2,0,7.8,0,0.43-.08.57-0.54,0.55-1.13,0-2.27,0-3.4,0-0.49,0-.59-0.15-0.58-0.6,0-2.15,0-4.3,0-6.45a8.74,8.74,0,0,0-.06-1.2,1.29,1.29,0,0,0-1.41-1.28,1.27,1.27,0,0,0-1.45,1.23,12.08,12.08,0,0,0-.08,2.33c0,1.8,0,3.59,0,5.39,0,0.48-.14.59-0.59,0.58-1.13,0-2.27,0-3.4,0a0.42,0.42,0,0,1-.52-0.51q0-7.66,0-15.32a0.6,0.6,0,0,1,.45-0.68q1.79-.67,3.55-1.41c0.43-.18.52-0.09,0.51,0.35,0,1.63,0,3.26,0,4.89C188.17,19.1,188.18,19.21,188.2,19.45Z"/><path class="cls-2" d="M100.38,19.46a5.51,5.51,0,0,1,3.14-1.12,3.84,3.84,0,0,1,4.18,3.32,8.84,8.84,0,0,1,.19,1.83c0,2.53,0,5.06,0,7.59,0,0.45-.11.61-0.58,0.6-1.13,0-2.27,0-3.4,0-0.45,0-.55-0.14-0.55-0.57,0-2.13,0-4.26,0-6.38a9.31,9.31,0,0,0-.07-1.34,1.43,1.43,0,0,0-2.83,0,5.68,5.68,0,0,0-.1,1.05c0,2.22,0,4.44,0,6.67,0,0.52-.15.63-0.63,0.61-1.11,0-2.22,0-3.33,0-0.4,0-.51-0.11-0.51-0.51q0-7.66,0-15.32a0.65,0.65,0,0,1,.5-0.72q1.72-.65,3.42-1.36c0.43-.18.56-0.15,0.55,0.36C100.36,15.85,100.38,17.57,100.38,19.46Z"/><path class="cls-5" d="M61.27,14.26c2.22,0,4.44,0,6.66,0,0.48,0,.66.1,0.64,0.62,0,1-.05,2,0,3,0,0.57-.18.66-0.68,0.64-1.13,0-2.27,0-3.4,0-0.73,0-.83.22-0.83,0.87,0,3.87,0,7.75,0,11.62,0,0.6-.16.76-0.74,0.73-1.16,0-2.32,0-3.47,0-0.55,0-.66-0.15-0.66-0.67,0-3.92,0-7.84,0-11.76,0-.6-0.1-0.82-0.76-0.79-1.2.06-2.41,0-3.61,0A0.41,0.41,0,0,1,54,18c0-1.06,0-2.13,0-3.19,0-.48.18-0.53,0.58-0.53C56.78,14.26,59,14.26,61.27,14.26Z"/><path class="cls-3" d="M147.52,30.79a5.24,5.24,0,0,1-4.09,1.09c-2-.31-3.12-1.67-3.34-3.91S140,23.77,140,21.66c0-.83,0-1.66,0-2.48,0-.48.15-0.59,0.6-0.58q1.67,0,3.33,0c0.46,0,.6.12,0.59,0.59,0,2.13,0,4.26,0,6.38a9.2,9.2,0,0,0,.07,1.2,1.43,1.43,0,0,0,2.85-.08c0.06-1.49,0-3,0-4.47,0-1,0-2,0-3,0-.41.07-0.59,0.54-0.58,1.18,0,2.36,0,3.55,0A0.36,0.36,0,0,1,152,19q0,6.1,0,12.2c0,0.42-.18.44-0.51,0.44-1.11,0-2.22,0-3.33,0C147.61,31.7,147.36,31.56,147.52,30.79Z"/><path class="cls-6" d="M159.63,19.5a5.46,5.46,0,0,1,4.11-1.1,3.62,3.62,0,0,1,3.12,2.71,7.8,7.8,0,0,1,.33,2.38c0,2.53,0,5.06,0,7.59,0,0.52-.15.62-0.63,0.61-1,0-2.08,0-3.12,0-0.6,0-.81-0.1-0.79-0.76,0-2.15,0-4.3,0-6.45a6.9,6.9,0,0,0-.07-1.13,1.44,1.44,0,0,0-2.83,0,8.86,8.86,0,0,0-.09,1.91c0,1.94,0,3.88,0,5.81,0,0.56-.16.66-0.67,0.64-1.11,0-2.22,0-3.33,0-0.36,0-.48-0.08-0.48-0.46q0-6.06,0-12.12c0-.44.18-0.49,0.54-0.48,1.06,0,2.13,0,3.19,0C159.48,18.58,159.84,18.64,159.63,19.5Z"/><path class="cls-7" d="M76,26.43c-1.11,0-2.22,0-3.33,0-0.43,0-.53.11-0.41,0.53a2,2,0,0,0,2,1.54,5.34,5.34,0,0,0,2.87-.62c0.57-.32.81-0.16,1.07,0.36a19.72,19.72,0,0,0,1.09,1.82c0.18,0.28.17,0.43-.14,0.6a9.38,9.38,0,0,1-6.56,1.1,5.4,5.4,0,0,1-4.23-4.37,9.12,9.12,0,0,1,.21-5.24,5.54,5.54,0,0,1,5.83-3.8,5.26,5.26,0,0,1,5.15,4.25A13.21,13.21,0,0,1,79.83,26c0,0.4-.16.46-0.51,0.46C78.21,26.41,77.1,26.43,76,26.43Zm-2-2.78c0.49,0,1,0,1.48,0s0.44-.1.37-0.45a1.74,1.74,0,0,0-1.88-1.53,1.69,1.69,0,0,0-1.7,1.56c-0.07.33,0,.42,0.32,0.41C73,23.63,73.48,23.64,73.95,23.64Z"/><path class="cls-3" d="M169.85,25.12a7.55,7.55,0,0,1,.59-3.46A6,6,0,0,1,180.81,21a0.41,0.41,0,0,1-.14.68q-1.17.85-2.31,1.76c-0.28.22-.45,0.28-0.63-0.11a2.64,2.64,0,0,0-.68-0.9,1.46,1.46,0,0,0-2.37.47,5.73,5.73,0,0,0,0,4.48,1.58,1.58,0,0,0,2.37.73,2,2,0,0,0,.78-0.71c0.38-.7.75-0.7,1.31-0.16a12.35,12.35,0,0,0,1.62,1.27c0.39,0.27.44,0.47,0.13,0.88a6,6,0,0,1-6.94,2.35c-2.34-.66-3.8-2.61-4-5.42C169.83,25.87,169.85,25.49,169.85,25.12Z"/><path class="cls-7" d="M82.06,25.08a7.22,7.22,0,0,1,.14-2,5.42,5.42,0,0,1,4.42-4.6c2.55-.51,4.73.06,6.31,2.3,0.26,0.38.33,0.59-.11,0.89a23.44,23.44,0,0,0-2.15,1.62c-0.41.35-.61,0.27-0.81-0.18a2.41,2.41,0,0,0-.41-0.58,1.5,1.5,0,0,0-2.64.42,6,6,0,0,0,0,4.24,1.61,1.61,0,0,0,2.57.73,3.18,3.18,0,0,0,.48-0.42c0.81-.85.81-0.86,1.76-0.11a11.32,11.32,0,0,0,1.24.95c0.6,0.35.45,0.63,0.12,1.09a6,6,0,0,1-7.66,1.89c-2.19-1-3-2.91-3.22-5.14A10.22,10.22,0,0,1,82.06,25.08Z"/><path class="cls-8" d="M132.95,19.58a4.13,4.13,0,0,1,4.39-1,0.59,0.59,0,0,1,.45.83c-0.33,1.32-.62,2.65-0.94,4-0.28-.23-0.5-0.43-0.75-0.59a2.19,2.19,0,0,0-2.28-.24,1.75,1.75,0,0,0-.82,1.77c0,1.84,0,3.69,0,5.53s0,1.71-1.71,1.71c-0.78,0-1.56,0-2.34,0a0.36,0.36,0,0,1-.45-0.44q0-6.1,0-12.19a0.36,0.36,0,0,1,.46-0.43c1.06,0,2.13,0,3.19,0C132.75,18.57,133.18,18.62,132.95,19.58Z"/></svg>