<svg id="Layer_1" data-name="Layer 1" xmlns="http://www.w3.org/2000/svg" viewBox="0 0 415 270"><defs><style>.cls-1{fill:#3faacf;}.cls-2{fill:#358ba4;}.cls-10,.cls-3{fill:#fff;}.cls-4{fill:#cadfee;}.cls-5{fill:#d5e8f7;}.cls-13,.cls-15,.cls-5{isolation:isolate;}.cls-6{fill:#e2aaa6;}.cls-7{fill:#a7d9c0;}.cls-10,.cls-8{opacity:0.9;}.cls-9{fill:#69c398;}.cls-11{fill:#f6daba;}.cls-12{fill:#f8c587;}.cls-13{fill:#ba8ec0;}.cls-14{fill:#4a494a;}.cls-15{fill:none;stroke:#fff;stroke-linecap:round;stroke-miterlimit:10;stroke-width:7px;}</style></defs><title>2advantages2</title><path class="cls-1" d="M81,185.84v-8.93H336.82v8.93a17,17,0,0,1-17,17H98A17,17,0,0,1,81,185.84Z"/><rect class="cls-2" x="182.19" y="202.8" width="52.51" height="22.61"/><path class="cls-1" d="M81,177.27V43.43A15.68,15.68,0,0,1,96.68,27.75H321.14a15.68,15.68,0,0,1,15.68,15.68V177.27Z"/><rect class="cls-3" x="89.75" y="38.51" width="236.5" height="133.73"/><path class="cls-3" d="M208.82,182.93a5.76,5.76,0,0,1,5.83,5.83,5.88,5.88,0,0,1-5.83,5.83,5.76,5.76,0,0,1-5.83-5.83A5.88,5.88,0,0,1,208.82,182.93Z"/><path class="cls-1" d="M159.83,233.54a7.83,7.83,0,0,1,7.57-7.74l83.14-.94a7.7,7.7,0,0,1,7.74,7.57h0l-98.46,1.12Z"/><path class="cls-4" d="M214.87,250.81c0-.65.14-1.08.38-1.08l60-.47c.23,0,.39.43.4,1.07s-.14,1.08-.38,1.08l-60,.47C215,251.88,214.88,251.46,214.87,250.81Z"/><rect class="cls-5" x="103.61" y="78.82" width="72.04" height="69.27" rx="2.99" ry="2.99"/><path class="cls-6" d="M123.47,97.72a11.88,11.88,0,1,1-12.39,11.87A12.16,12.16,0,0,1,123.47,97.72Z"/><path class="cls-7" d="M133.94,148.09H106.75a3.13,3.13,0,0,1-3.13-3.13v-14a3.13,3.13,0,0,1,1.08-2.37l18.57-16.14a1.12,1.12,0,0,1,1.57.11l11.45,13a3.13,3.13,0,0,1,.78,2.07V145A3.13,3.13,0,0,1,133.94,148.09Z"/><path class="cls-1" d="M172.37,148.09H115l45.46-42.68a.76.76,0,0,1,1.15.13l13.5,19.92a3.28,3.28,0,0,1,.57,1.84v17.5A3.28,3.28,0,0,1,172.37,148.09Z"/><path class="cls-7" d="M307.46,147.48h-116a3,3,0,0,1-3-2.9V122.39a3,3,0,0,1,3-2.9h116a3,3,0,0,1,3,2.9v22.19A3,3,0,0,1,307.46,147.48Z"/><g class="cls-8"><path class="cls-3" d="M304.69,134.13a7.74,7.74,0,0,1-7.82,7.6h0a7.6,7.6,0,1,1,0-15.2h0a7.68,7.68,0,0,1,7.82,7.6Z"/></g><path class="cls-9" d="M300.51,132.79a.9.9,0,0,0-.13-1.12h0a1,1,0,0,0-1.35,0l-3,2.89v0l-.78.76-1-.94a.84.84,0,0,0-1.26,0,.79.79,0,0,0,0,1.22l1.64,1.59a1,1,0,0,0,1.35,0l.77-.75.56-.55.05,0,3-2.89a.87.87,0,0,0,.07-.11Z"/><rect class="cls-10" x="195.13" y="126.6" width="17.52" height="15.21" rx="2.46" ry="2.46"/><rect class="cls-11" x="240.13" y="135.82" width="5.93" height="6.78"/><path class="cls-12" d="M308.36,108.27H190.66a2.22,2.22,0,0,1-2.15-2.28V82.55a2.22,2.22,0,0,1,2.15-2.28h117.7a2.22,2.22,0,0,1,2.15,2.28V106A2.22,2.22,0,0,1,308.36,108.27Z"/><rect class="cls-10" x="219.62" y="88.58" width="36.54" height="3.8" rx="1.9" ry="1.9"/><rect class="cls-10" x="219.62" y="97.21" width="54.33" height="3.8" rx="1.9" ry="1.9"/><rect class="cls-10" x="196.42" y="86.71" width="17.52" height="15.7" rx="2.46" ry="2.46"/><g class="cls-8"><path class="cls-3" d="M305.33,95a7.86,7.86,0,0,1-7.82,7.84h0a7.84,7.84,0,0,1,0-15.69h0A7.8,7.8,0,0,1,305.33,95Z"/><path class="cls-9" d="M301.14,93.67a1,1,0,0,0-.13-1.16h0a1,1,0,0,0-1.35,0l-3,3v0l-.78.78-1-1a.89.89,0,0,0-1.26,1.26l1.64,1.65a.93.93,0,0,0,1.35,0l.77-.77.56-.56.05,0,3-3a.9.9,0,0,0,.07-.11Z"/></g><polygon class="cls-13" points="231.88 184.02 227.86 143.08 222.66 99.31 226.68 98.59 235.91 140.24 250.1 141.43 264.78 99.31 268.8 99.78 257.91 144.74 258.62 182.84 231.88 184.02"/><path class="cls-11" d="M227.95,101.21a3.31,3.31,0,1,1-3.31-3.31A3.38,3.38,0,0,1,227.95,101.21Z"/><path class="cls-11" d="M269.44,101.71a3.31,3.31,0,1,1-3.31-3.31A3.23,3.23,0,0,1,269.44,101.71Z"/><path class="cls-11" d="M252,127.7a8.74,8.74,0,0,1-8.76,8.76,8.59,8.59,0,0,1-8.76-8.76,8.76,8.76,0,0,1,17.51,0Z"/><path class="cls-14" d="M252,129.12a8.74,8.74,0,0,1-8.76,8.76,8.59,8.59,0,0,1-8.76-8.76,8.74,8.74,0,0,1,8.76-8.76A8.89,8.89,0,0,1,252,129.12Z"/><polygon class="cls-14" points="258.74 183.67 255.44 247.52 251.1 247.57 246.47 184.28 242.63 184.56 240.94 247.94 237.57 247.74 231.57 185.16 230.76 177.4 258.43 177.32 258.74 183.67"/><polygon class="cls-14" points="255.14 247.26 264.61 248.33 264.39 249.75 250.43 249.91 250.88 247.3 255.14 247.26"/><polygon class="cls-14" points="236.83 247.39 227.35 248.46 227.57 249.89 241.53 250.04 241.09 247.44 236.83 247.39"/><rect class="cls-5" x="89.71" y="38.41" width="236.54" height="18.37"/><path class="cls-3" d="M320.22,45.7H313.7a.75.75,0,0,1,0-1.5h6.51a.81.81,0,0,1,.75.75A.72.72,0,0,1,320.22,45.7Z"/><path class="cls-3" d="M320.22,48.33H313.7a.75.75,0,0,1,0-1.5h6.51a.75.75,0,0,1,0,1.5Z"/><path class="cls-3" d="M320.22,50.83H313.7a.75.75,0,0,1,0-1.5h6.51a.75.75,0,0,1,0,1.5Z"/><line class="cls-15" x1="132.09" y1="47.93" x2="301.77" y2="47.93"/><path class="cls-3" d="M99.56,49.25a.51.51,0,0,1-.41-.14.52.52,0,0,1,0-.83l2.62-2.62a.58.58,0,0,1,.83.83L100,49.11A.51.51,0,0,1,99.56,49.25Z"/><path class="cls-3" d="M102.18,49.25a.51.51,0,0,1-.41-.14l-2.62-2.62a.58.58,0,1,1,.83-.83l2.62,2.62a.52.52,0,0,1,0,.83A.51.51,0,0,1,102.18,49.25Z"/><path class="cls-3" d="M111.24,48.31h-4a.81.81,0,1,1,0-1.61h4a.87.87,0,0,1,.81.81A.74.74,0,0,1,111.24,48.31Z"/><path class="cls-3" d="M117.55,45.06a2.23,2.23,0,1,0,2.23,2.23A2.23,2.23,0,0,0,117.55,45.06Zm0,3.35a1.12,1.12,0,1,1,1.12-1.12A1.12,1.12,0,0,1,117.55,48.41Z"/></svg>