<svg id="Layer_1" data-name="Layer 1" xmlns="http://www.w3.org/2000/svg" viewBox="0 0 415 270"><defs><style>.cls-1{fill:#d5e8f7;}.cls-1,.cls-12,.cls-16,.cls-3,.cls-6,.cls-7,.cls-9{isolation:isolate;}.cls-2,.cls-6,.cls-7{fill:#fff;}.cls-3{fill:none;stroke:#fff;stroke-linecap:round;stroke-miterlimit:10;stroke-width:7px;}.cls-4{fill:#3faacf;}.cls-5{fill:#acdfe8;}.cls-6{opacity:0.49;}.cls-8{fill:#48c5dd;opacity:0.2;}.cls-9{fill:#ba8ec0;}.cls-10{fill:#f8c587;}.cls-11{fill:#a7d9c0;}.cls-13{fill:#338ca5;}.cls-14{fill:#e2aaa6;}.cls-15{fill:#398598;}.cls-16{fill:#efe0ee;}.cls-17{fill:#3dafca;}.cls-18{fill:#cadfee;}</style></defs><title>2advantages</title><rect class="cls-1" x="69.34" y="33.37" width="243.65" height="19.18"/><path class="cls-2" d="M304.53,41h-6.8a.78.78,0,0,1,0-1.57h6.8a.84.84,0,0,1,.78.78A.75.75,0,0,1,304.53,41Z"/><path class="cls-2" d="M304.53,43.73h-6.8a.78.78,0,0,1,0-1.57h6.8a.78.78,0,0,1,0,1.57Z"/><path class="cls-2" d="M304.53,46.35h-6.8a.78.78,0,0,1,0-1.57h6.8a.78.78,0,0,1,0,1.57Z"/><line class="cls-3" x1="113.6" y1="43.31" x2="284.19" y2="43.31"/><path class="cls-2" d="M79.63,44.69a.53.53,0,0,1-.43-.14.54.54,0,0,1,0-.86l2.73-2.73a.61.61,0,0,1,.86.86l-2.73,2.73A.53.53,0,0,1,79.63,44.69Z"/><path class="cls-2" d="M82.36,44.69a.53.53,0,0,1-.43-.14L79.2,41.81a.61.61,0,0,1,.86-.86l2.73,2.73a.54.54,0,0,1,0,.86A.53.53,0,0,1,82.36,44.69Z"/><path class="cls-2" d="M91.82,43.71H87.61a.84.84,0,1,1,0-1.68h4.21a.91.91,0,0,1,.84.84A.77.77,0,0,1,91.82,43.71Z"/><path class="cls-2" d="M98.41,40.32a2.33,2.33,0,1,0,2.33,2.33A2.33,2.33,0,0,0,98.41,40.32Zm0,3.5a1.17,1.17,0,1,1,1.17-1.17A1.17,1.17,0,0,1,98.41,43.81Z"/><path class="cls-4" d="M313.34,33.08V188H71.08V33.08H313.34m.79-10H70.28a9.21,9.21,0,0,0-9.21,9.21V188.75A9.21,9.21,0,0,0,70.28,198H314.14a9.21,9.21,0,0,0,9.21-9.21V32.28a9.21,9.21,0,0,0-9.21-9.21Z"/><path class="cls-5" d="M352.06,200a13.9,13.9,0,0,1-.14,2,14.14,14.14,0,0,1-1.39,4.49H29.67a14.24,14.24,0,0,1-1.49-5.4V200Z"/><path class="cls-4" d="M350.54,206.47a14.3,14.3,0,0,1-2.73,3.8,14.51,14.51,0,0,1-10.3,4.32H42.73a14.55,14.55,0,0,1-13-8.06Z"/><rect class="cls-6" x="299.45" y="166.15" width="1.92" height="23.72"/><path class="cls-1" d="M291.26,68.58v84.2c0,1.35-1.64,2.44-3.66,2.44H97.6c-2,0-3.66-1.09-3.66-2.44V68.58c0-1.35,1.64-2.44,3.66-2.44h190C289.63,66.14,291.26,67.23,291.26,68.58Z"/><rect class="cls-7" x="104.58" y="76.17" width="176.62" height="60.5"/><rect class="cls-1" x="120" y="164.92" width="38.28" height="3.97" rx="1.9" ry="1.9"/><rect class="cls-1" x="120" y="173.93" width="68.51" height="3.97" rx="1.9" ry="1.9"/><rect class="cls-8" x="103.33" y="145.16" width="169.72" height="2.54" rx="1.27" ry="1.27"/><circle class="cls-2" cx="131.26" cy="146.49" r="3.61"/><circle class="cls-9" cx="190.88" cy="108.01" r="12.35" transform="translate(-26.84 81.58) rotate(-22.58)"/><rect class="cls-10" x="93.46" y="163.11" width="18.35" height="16.39" rx="1" ry="1"/><rect class="cls-1" x="230.11" y="164.34" width="38.28" height="3.97" rx="1.9" ry="1.9"/><rect class="cls-1" x="230.11" y="173.35" width="81.09" height="3.97" rx="1.9" ry="1.9"/><rect class="cls-11" x="203.57" y="162.53" width="18.35" height="16.39" rx="1" ry="1"/><g id="Layer_1-2" data-name="Layer 1" class="cls-12"><path class="cls-2" d="M188.41,103.62v9.06a.31.31,0,0,0,.49.26l6.35-4.42a.31.31,0,0,0,0-.51l-6.35-4.65A.31.31,0,0,0,188.41,103.62Z"/></g><path class="cls-13" d="M159.6,200.44h60.47v.38a5.4,5.4,0,0,1-5.4,5.4H165a5.4,5.4,0,0,1-5.4-5.4v-.38h0Z"/><path class="cls-14" d="M278,168.07v-30H391.6c1.7,0,3,1,3,2.43v25c0,1.39-1.28,2.43-3,2.43H278Z"/><path class="cls-10" d="M249.32,231.23v-30H370.77a2.62,2.62,0,0,1,2.88,2.43V228.8a2.62,2.62,0,0,1-2.88,2.43Z"/><rect class="cls-2" x="362.17" y="203.63" width="1.99" height="24.54"/><path class="cls-7" d="M260.8,168.62h107.7a12.62,12.62,0,0,1,12.62,12.62v4.88a12.62,12.62,0,0,1-12.62,12.62H260.8a0,0,0,0,1,0,0V168.62a0,0,0,0,1,0,0Z" transform="matrix(1, 0.01, -0.01, 1, 2.45, -4.22)"/><rect class="cls-2" x="358.05" y="203.63" width="1.99" height="24.54"/><path class="cls-2" d="M360.27,103.64l-85.13,7.8a13.75,13.75,0,0,0,2.43,27.4L362.7,131Z"/><path class="cls-15" d="M367.47,134.12l-90.7,8.28a16.91,16.91,0,1,1-3.13-33.67l90.7-8.28a2.22,2.22,0,0,1,.37,4.42L274,113.15a12.56,12.56,0,0,0,2.21,25l90.7-8.28a2.14,2.14,0,0,1,2.39,2A1.82,1.82,0,0,1,367.47,134.12Z"/><path class="cls-9" d="M260.61,166.85l102.74-.42c10.63-.11,19.23,7.38,19.54,16.81s-8,16.92-18.6,17l-102.74.42a2.34,2.34,0,0,1-2.54-2.22,2.24,2.24,0,0,1,2.46-2.21l102.74-.42c7.91.05,14-5.57,13.88-12.59s-6.54-12.5-14.45-12.55l-102.74.42a2.34,2.34,0,0,1-2.54-2.22C258,167.94,259.16,166.74,260.61,166.85Z"/><rect class="cls-6" x="384.86" y="140.62" width="1.99" height="24.54"/><rect class="cls-2" x="322.38" y="218.86" width="27.38" height="1.65" rx="0.63" ry="0.63" transform="translate(672.15 439.38) rotate(-180)"/><rect class="cls-2" x="314.58" y="214.61" width="35.44" height="1.65" rx="0.63" ry="0.63" transform="translate(664.6 430.88) rotate(180)"/><rect class="cls-1" x="271.44" y="114.69" width="93.34" height="2.15" rx="0.9" ry="0.9" transform="translate(-9.14 29.14) rotate(-5.17)"/><rect class="cls-1" x="271.87" y="120.48" width="93.34" height="2.15" rx="0.9" ry="0.9" transform="translate(-9.66 29.2) rotate(-5.17)"/><rect class="cls-1" x="272.82" y="125.97" width="93.34" height="2.15" rx="0.9" ry="0.9" transform="translate(-10.15 29.31) rotate(-5.17)"/><rect class="cls-16" x="265.77" y="176.63" width="101.9" height="2.15" rx="0.9" ry="0.9" transform="translate(0.83 -1.47) rotate(0.27)"/><rect class="cls-16" x="265.65" y="182.44" width="101.9" height="2.15" rx="0.9" ry="0.9" transform="translate(0.85 -1.47) rotate(0.27)"/><rect class="cls-16" x="266.12" y="187.99" width="101.9" height="2.15" rx="0.9" ry="0.9" transform="translate(0.88 -1.47) rotate(0.27)"/><path class="cls-17" d="M343.73,112.65,345.6,133l-6.59-5.9-5.9,7.86-1.87-21.19a.44.44,0,0,1,.4-.48l11.61-1A.44.44,0,0,1,343.73,112.65Z"/><path class="cls-18" d="M229,232.27c0-.59.57-1,1.42-1l163.54.2c.85,0,1.42.39,1.42,1s-.57,1-1.42,1l-163.54-.2C229.52,233.25,229,232.86,229,232.27Z"/><rect class="cls-6" x="350.05" y="149.36" width="27.38" height="1.65" rx="0.63" ry="0.63"/><rect class="cls-6" x="341.87" y="153.61" width="35.44" height="1.65" rx="0.63" ry="0.63"/></svg>