<svg id="Layer_1" data-name="Layer 1" xmlns="http://www.w3.org/2000/svg" viewBox="0 0 415 270"><defs><style>.cls-1{fill:#74cae1;}.cls-12,.cls-2{fill:#fff;}.cls-3{fill:#3faacf;}.cls-4{fill:#ba8ec0;}.cls-12,.cls-4,.cls-8,.cls-9{isolation:isolate;}.cls-5{fill:#010101;}.cls-6{fill:#a7d9c0;}.cls-7{fill:#358ba4;}.cls-8{fill:#d5e8f7;}.cls-9{fill:none;stroke:#fff;stroke-linecap:round;stroke-miterlimit:10;stroke-width:7px;}.cls-10{fill:#f8c587;}.cls-11{fill:#9aaaa1;}.cls-12{opacity:0.2;}.cls-13{fill:#e2aaa6;}</style></defs><title>3advantages</title><circle class="cls-1" cx="130.94" cy="134.67" r="75.61"/><circle class="cls-2" cx="130.94" cy="134.67" r="61.83"/><path class="cls-3" d="M141.9,43.83V218.16a13.68,13.68,0,0,0,13.72,13.72H270.34a13.68,13.68,0,0,0,13.72-13.72V43.83a13.68,13.68,0,0,0-13.72-13.72H155.62A13.52,13.52,0,0,0,141.9,43.83Z"/><rect class="cls-2" x="151.42" y="48.29" width="123.57" height="152.13"/><path class="cls-4" d="M333.48,152.47h0a3.25,3.25,0,0,1,3.25,3.25h0a3.25,3.25,0,0,1-3.25,3.25h0a3.25,3.25,0,0,1-3.25-3.25h0A3.25,3.25,0,0,1,333.48,152.47Z"/><path class="cls-5" d="M315,104.81h6.5v6.5H315Z"/><path class="cls-1" d="M264.71,93.8v129A10.37,10.37,0,0,0,275,233h60a10.37,10.37,0,0,0,10.28-10.28V93.8A10.37,10.37,0,0,0,335,83.52H275A10.37,10.37,0,0,0,264.71,93.8Z"/><rect class="cls-2" x="271.73" y="96.54" width="67.75" height="112.37"/><rect class="cls-6" x="280" y="109.19" width="50.95" height="87.83" rx="1.95" ry="1.95"/><path class="cls-2" d="M283.65,112.84v7a1.4,1.4,0,0,0,1.4,1.4h0a1.4,1.4,0,0,0,1.4-1.4v-4.19h4.19a1.4,1.4,0,0,0,1.4-1.4h0a1.4,1.4,0,0,0-1.4-1.4Z"/><path class="cls-2" d="M206.27,210.31A6.69,6.69,0,1,1,213,217,6.63,6.63,0,0,1,206.27,210.31Z"/><path class="cls-1" d="M123.05,138.22a5.25,5.25,0,1,1,5.25,5.25A5.21,5.21,0,0,1,123.05,138.22Z"/><path class="cls-7" d="M219.86,188a1.83,1.83,0,0,1-1.83-1.75h0a1.83,1.83,0,0,1,3.66,0h0a1.83,1.83,0,0,1-1.83,1.75Z"/><path class="cls-7" d="M213.28,188a1.83,1.83,0,0,1-1.83-1.75h0a1.83,1.83,0,0,1,3.66,0h0a1.83,1.83,0,0,1-1.83,1.75Z"/><path class="cls-7" d="M206.7,188a1.83,1.83,0,0,1-1.83-1.75h0a1.83,1.83,0,0,1,3.66,0h0A1.83,1.83,0,0,1,206.7,188Z"/><rect class="cls-8" x="151.47" y="48.19" width="123.58" height="15.22"/><path class="cls-2" d="M268.32,54.29h-5.64a.65.65,0,0,1,0-1.3h5.64a.7.7,0,0,1,.65.65A.63.63,0,0,1,268.32,54.29Z"/><path class="cls-2" d="M268.32,56.57h-5.64a.65.65,0,0,1,0-1.3h5.64a.65.65,0,0,1,0,1.3Z"/><path class="cls-2" d="M268.32,58.74h-5.64a.65.65,0,0,1,0-1.3h5.64a.65.65,0,0,1,0,1.3Z"/><line class="cls-9" x1="187.48" y1="56.31" x2="252.52" y2="56.05"/><path class="cls-2" d="M157.34,57.77a.51.51,0,0,1-.41-.14.52.52,0,0,1,0-.83l2.62-2.62a.58.58,0,0,1,.83.83l-2.62,2.62A.51.51,0,0,1,157.34,57.77Z"/><path class="cls-2" d="M160,57.77a.51.51,0,0,1-.41-.14L156.93,55a.58.58,0,0,1,.83-.83l2.62,2.62a.52.52,0,0,1,0,.83A.51.51,0,0,1,160,57.77Z"/><path class="cls-2" d="M169,56.83h-4a.81.81,0,1,1,0-1.61h4a.87.87,0,0,1,.81.81A.74.74,0,0,1,169,56.83Z"/><path class="cls-2" d="M175.33,53.58a2.23,2.23,0,1,0,2.23,2.23A2.23,2.23,0,0,0,175.33,53.58Zm0,3.35a1.12,1.12,0,1,1,1.12-1.12A1.12,1.12,0,0,1,175.33,56.93Z"/><path class="cls-2" d="M306.14,151.06a3.22,3.22,0,1,1,3.22-3.22h6.45a9.66,9.66,0,0,0-6.45-9.08v-7h-6.45v7a9.65,9.65,0,0,0,3.22,18.75,3.22,3.22,0,1,1-3.22,3.22h-6.45a9.66,9.66,0,0,0,6.45,9.08v7h6.45v-7a9.65,9.65,0,0,0-3.22-18.75Z"/><rect class="cls-2" x="322.24" y="151.92" width="4.73" height="4.73"/><path class="cls-2" d="M319.28,114.24h0a1.4,1.4,0,0,0,1.4,1.4h4.19v4.19a1.4,1.4,0,0,0,1.4,1.4h0a1.4,1.4,0,0,0,1.4-1.4v-7h-7A1.4,1.4,0,0,0,319.28,114.24Z"/><path class="cls-2" d="M327.67,194.18v-7a1.4,1.4,0,0,0-1.4-1.4h0a1.4,1.4,0,0,0-1.4,1.4v4.19h-4.19a1.4,1.4,0,0,0-1.4,1.4h0a1.4,1.4,0,0,0,1.4,1.4Z"/><path class="cls-2" d="M292,192.78h0a1.4,1.4,0,0,0-1.4-1.4h-4.19v-4.19a1.4,1.4,0,0,0-1.4-1.4h0a1.4,1.4,0,0,0-1.4,1.4v7h7A1.4,1.4,0,0,0,292,192.78Z"/><path class="cls-2" d="M299.48,221.05a6.12,6.12,0,1,1,6.12,6.12A6.07,6.07,0,0,1,299.48,221.05Z"/><rect class="cls-10" x="171.2" y="83.51" width="85.62" height="51.1" rx="3.65" ry="3.65"/><rect class="cls-11" x="171.3" y="96.04" width="85.51" height="11.76"/><rect class="cls-2" x="285.12" y="151.92" width="4.73" height="4.73"/><rect class="cls-4" x="172.24" y="148.35" width="38.92" height="4.04" rx="1.9" ry="1.9"/><rect class="cls-1" x="78.14" y="136.61" width="10" height="4.15" rx="2.02" ry="2.02"/><rect class="cls-1" x="89.65" y="101.36" width="10" height="4.15" rx="2.02" ry="2.02" transform="translate(100.86 -36.63) rotate(45)"/><rect class="cls-1" x="97.98" y="124.54" width="38.43" height="4.04" rx="2.02" ry="2.02" transform="translate(123.82 -45.8) rotate(45)"/><rect class="cls-1" x="108.3" y="144.83" width="26.52" height="4.04" rx="2.02" ry="2.02" transform="translate(-68.23 128.97) rotate(-45)"/><rect class="cls-1" x="126.37" y="84.12" width="10" height="4.15" rx="2.02" ry="2.02" transform="translate(217.56 -45.18) rotate(90)"/><rect class="cls-1" x="126.31" y="184.28" width="10" height="4.15" rx="2.02" ry="2.02" transform="translate(317.66 55.05) rotate(90)"/><rect class="cls-1" x="93.25" y="167.81" width="10" height="4.15" rx="2.02" ry="2.02" transform="translate(287.84 220.54) rotate(135)"/><rect class="cls-4" x="172.24" y="157.51" width="57.87" height="4.04" rx="1.9" ry="1.9"/><rect class="cls-4" x="172.24" y="167.49" width="72.67" height="4.04" rx="1.9" ry="1.9"/><path class="cls-12" d="M253.3,83.53a157.9,157.9,0,0,1-82.05,47.4l0,0a3.65,3.65,0,0,0,3.65,3.65h78.32a3.65,3.65,0,0,0,3.65-3.65V87.17A3.65,3.65,0,0,0,253.3,83.53Z"/><path class="cls-13" d="M241.66,130.85a4,4,0,0,1-4-3.8h0a4,4,0,0,1,8,0h0a4,4,0,0,1-4,3.8Z"/><path class="cls-6" d="M246.86,130.85a4,4,0,0,1-4-3.8h0a4,4,0,0,1,8,0h0a4,4,0,0,1-4,3.8Z"/></svg>