<svg xmlns="http://www.w3.org/2000/svg" viewBox="0 0 200 150"><defs><style>.cls-1,.cls-15{fill:none;}.cls-19,.cls-2{fill:#c8f0f5;}.cls-3{fill:#f0f0f0;}.cls-13,.cls-14,.cls-17,.cls-3{isolation:isolate;}.cls-4{fill:#f5f9fa;}.cls-5{fill:#333d4f;}.cls-6{fill:#546280;}.cls-7{fill:#495670;}.cls-8{fill:#ffb68e;}.cls-18,.cls-9{fill:#cd9cde;}.cls-10{fill:#bc8ecc;}.cls-11{fill:#34325c;}.cls-12{fill:#8ed16f;}.cls-13{opacity:0.1;}.cls-14{opacity:0.05;}.cls-15{stroke:#abdee7;stroke-miterlimit:10;stroke-width:0.47px;}.cls-16{fill:#b7cad9;}.cls-17{opacity:0.2;}.cls-18,.cls-19{fill-rule:evenodd;}</style></defs><title>3 ill affiliate_1</title><g id="Слой_2" data-name="Слой 2"><g id="Слой_1-2" data-name="Слой 1"><rect class="cls-1" width="200" height="150"/><path class="cls-2" d="M95.55,3.06C86.15,1.34,56.39-4.08,47,7.24,42.84,12.32,44.19,19,44.67,21.4c1.7,8.41,8.71,14.15,15,19.3,4.11,3.36,6.59,3.18,8.68,6.11a12.29,12.29,0,0,1,0,14.48c-4.28,5.56-13.86.63-25.64,4.18C31.57,68.83,21.1,78.37,21,87c-.16,13.87,33,21.86,53.21,24.88,25.58,3.81,39.45-1.66,65.51-13,23.36-10.14,39.71-17.24,39.84-28.31.11-9.53-23.19-9.35-32.35-26.38-4.47-8.33-.35-10.31-4.73-18C133.24,9.93,107.09,5.16,95.55,3.06Z"/><ellipse class="cls-3" cx="105.16" cy="144.41" rx="24.67" ry="3.59"/><polygon class="cls-4" points="94.75 50.26 86.38 42.79 88.98 40.12 95.81 49.23 94.75 50.26"/><polygon class="cls-4" points="99.23 47.14 96.02 38.93 98.72 38.66 100.23 46.78 99.23 47.14"/><polygon class="cls-4" points="92.71 53.37 84.03 49.6 83.89 52.88 92.31 54.55 92.71 53.37"/><polygon class="cls-4" points="112.07 52.29 121.92 43.51 118.85 40.36 110.82 51.09 112.07 52.29"/><polygon class="cls-4" points="106.81 48.62 110.57 38.96 107.4 38.65 105.62 48.2 106.81 48.62"/><polygon class="cls-4" points="114.47 55.95 124.67 51.51 124.84 55.37 114.94 57.33 114.47 55.95"/><path class="cls-5" d="M95.05,135.41l-3.12,3.84c-.18.22.1.53.39.43l6.6-2.32a.84.84,0,0,0,.39-1.37l-.72-.87Z"/><path class="cls-5" d="M113.59,125.7l-1.27,1.9a.53.53,0,0,0,.33.79l7.28,2.42c.35.12.64-.23.43-.5l-3.11-4Z"/><path class="cls-6" d="M108,93c.24.36,10.79,9.21,10.79,9.21l-2.36,24-2.75-.45-1.45-20.18L96.09,93.94Z"/><polygon class="cls-7" points="113.75 104.41 98.88 93.72 96.09 93.94 112.2 105.52 113.65 125.7 114.22 125.79 113.75 104.41"/><polygon class="cls-6" points="100.86 93.18 95.51 111.57 98.55 135.12 96.06 135.42 89.18 111.31 92.78 90.53 100.86 93.18"/><polygon class="cls-7" points="99.23 93.62 93.88 112.02 96.89 135.32 98.55 135.12 95.51 111.57 100.86 93.18 92.78 90.53 92.62 91.45 99.23 93.62"/><polygon class="cls-8" points="88.68 41.26 89.11 40.47 89.74 38.54 88.61 36.67 87.6 34.38 86.09 35.2 85.75 37.38 87.42 41.1 88.68 41.26"/><polygon class="cls-8" points="119.49 43.54 119.19 42.69 118.86 40.69 120.27 39.01 121.62 36.91 122.99 37.95 122.98 40.16 120.76 43.57 119.49 43.54"/><path class="cls-9" d="M87.55,40.87,89,40.23,92.3,55l5.59,10.19,4.31,1.49,4.5-.81,7.1-9.19,5.54-14.07,1.34.86-2.55,14.63s-7.95,12.6-8,12.91a50.94,50.94,0,0,0-.82,23l-7.16,1.68a4.92,4.92,0,0,1-2.16,0h0a31.77,31.77,0,0,1-4.76-1.43L91,92.57s4.53-11.77,2.76-22.85c0-.32-6-14-6-14Z"/><path class="cls-8" d="M100.06,67.27l.13.12a2.78,2.78,0,0,0,3.83.18h0l.44-5.64-4-.31Z"/><path class="cls-8" d="M97.92,60.44c-.24,3.08,1.66,5.73,4.24,5.93s4.88-2.12,5.12-5.2-1.66-5.73-4.25-5.93S98.16,57.36,97.92,60.44Z"/><path class="cls-10" d="M118.13,58.09l2.55-14.63-.23-.15c-1.16,4.3-3.6,13.7-3.6,13.7l-9.76,15,1.16.79s-2.69,10-2.15,13.88-1.41,7-7.24,8.55a6.48,6.48,0,0,0-.62.2,8.76,8.76,0,0,0,1.7.29,10,10,0,0,0,3-.22L109.26,94a50.94,50.94,0,0,1,.82-23C110.18,70.69,118.13,58.09,118.13,58.09Z"/><path class="cls-11" d="M107.17,60.42a6.89,6.89,0,0,0-.15-3,3.76,3.76,0,0,0,1-2.29c-.06,0-1,.27-1,.27a5.9,5.9,0,0,0-3.25-1.27h0a4,4,0,0,0-1.1-.2v-.07a4.47,4.47,0,0,0-1.41.27c-4.55,1.21-3.48,6.74-3.48,6.74l.74-1.46c-.48-1.37,1-2.09,1.92-2.55s2.14.79,2.14.79v-.07c.46.27,2.19,1.16,3.61.33h0l.24-.12c.22.05.19.91,0,1.4Z"/><rect class="cls-12" x="60.58" y="35.45" width="5.6" height="10.91" transform="translate(-2.76 77.18) rotate(-61.58)"/><ellipse class="cls-13" cx="63.38" cy="40.9" rx="1.15" ry="2.3" transform="translate(-2.88 76.96) rotate(-61.39)"/><rect class="cls-12" x="59.66" y="107.62" width="7.68" height="3.94" transform="translate(-63.15 108.24) rotate(-59.3)"/><ellipse class="cls-13" cx="63.45" cy="109.56" rx="1.62" ry="0.81" transform="translate(-63.15 108.19) rotate(-59.3)"/><path class="cls-12" d="M147.55,44.79l-2.24-.42-1.86,10,5.14,1,1.32-7.09a21.7,21.7,0,0,1-1.77-2.45C147.93,45.47,147.74,45.13,147.55,44.79Z"/><path class="cls-12" d="M112.86,8.33c-.28.52-1.36.48-2.4-.09s-1.66-1.45-1.38-2a.56.56,0,0,1,.22-.21c-1.22-.37-2.5-.74-3.83-1.12l-1.1,2,9,4.85L115.44,8c-1-.32-2-.65-3.11-1C112.82,7.45,113.06,8,112.86,8.33Z"/><path class="cls-12" d="M109.08,6.27c-.28.52.33,1.4,1.38,2s2.12.61,2.4.09c.2-.36,0-.88-.53-1.36l-3-.91A.56.56,0,0,0,109.08,6.27Z"/><path class="cls-13" d="M109.08,6.27c-.28.52.33,1.4,1.38,2s2.12.61,2.4.09c.2-.36,0-.88-.53-1.36l-3-.91A.56.56,0,0,0,109.08,6.27Z"/><polygon class="cls-12" points="128.71 34.19 125.72 33.6 126.8 27.43 129.78 28.02 128.71 34.19"/><ellipse class="cls-13" cx="127.76" cy="30.81" rx="1.49" ry="0.74" transform="translate(74.14 150.79) rotate(-79.48)"/><ellipse class="cls-13" cx="147.02" cy="49.89" rx="2.15" ry="1.07" transform="translate(71.12 185.33) rotate(-79.48)"/><rect class="cls-12" x="79.54" y="92.82" width="5.23" height="10.2" transform="translate(-43.07 123.57) rotate(-61.58)"/><ellipse class="cls-13" cx="82.12" cy="97.98" rx="1.07" ry="2.15" transform="translate(-43.14 123.58) rotate(-61.58)"/><rect class="cls-12" x="66.81" y="11.46" width="5.23" height="10.2" transform="translate(-0.65 30.11) rotate(-24.36)"/><ellipse class="cls-13" cx="69.36" cy="16.58" rx="1.07" ry="2.15" transform="translate(-0.66 30.09) rotate(-24.36)"/><rect class="cls-12" x="100.63" y="21.36" width="5.23" height="10.2" transform="translate(-2.26 11.38) rotate(-6.24)"/><ellipse class="cls-13" cx="103.18" cy="26.46" rx="1.07" ry="2.15" transform="translate(-2.27 11.37) rotate(-6.24)"/><rect class="cls-12" x="136.09" y="76.77" width="3.19" height="6.21" transform="translate(-7.87 15.44) rotate(-6.24)"/><ellipse class="cls-13" cx="137.64" cy="79.88" rx="0.65" ry="1.31" transform="translate(-7.87 15.43) rotate(-6.24)"/><rect class="cls-12" x="139.76" y="132.34" width="3.3" height="6.44" transform="translate(-45.11 195.41) rotate(-61.58)"/><ellipse class="cls-12" cx="141.39" cy="135.59" rx="0.68" ry="1.36" transform="translate(-45.15 195.4) rotate(-61.58)"/><ellipse class="cls-13" cx="141.39" cy="135.59" rx="0.68" ry="1.36" transform="translate(-45.15 195.4) rotate(-61.58)"/><rect class="cls-12" x="136.46" y="132.68" width="3.3" height="6.44" transform="translate(-20.7 246.9) rotate(-79.49)"/><rect class="cls-14" x="136.46" y="132.68" width="3.3" height="6.44" transform="translate(-20.7 246.9) rotate(-79.49)"/><ellipse class="cls-12" cx="138.1" cy="135.94" rx="0.68" ry="1.36" transform="translate(-20.75 246.93) rotate(-79.49)"/><ellipse class="cls-13" cx="138.1" cy="135.94" rx="0.68" ry="1.36" transform="translate(-20.75 246.93) rotate(-79.49)"/><rect class="cls-12" x="137.05" y="134.63" width="3.3" height="6.44" transform="translate(-22.13 249.08) rotate(-79.49)"/><ellipse class="cls-12" cx="138.69" cy="137.89" rx="0.68" ry="1.36" transform="translate(-22.18 249.1) rotate(-79.49)"/><ellipse class="cls-13" cx="138.69" cy="137.89" rx="0.68" ry="1.36" transform="translate(-22.18 249.1) rotate(-79.49)"/><ellipse class="cls-3" cx="58.54" cy="137.7" rx="12.13" ry="1.76"/><ellipse class="cls-3" cx="145.59" cy="135.44" rx="5.32" ry="0.73"/><path class="cls-9" d="M145.7,135.28s-7.47-24.47,1.16-34.28c6.46-7.33,13.79-6.45,17.07-5.54a6,6,0,0,1,3.9,3.25c1.15,2.48.94,6.5-7.16,11.19-13.56,7.85-14.41,18.62-14.41,18.62Z"/><ellipse class="cls-3" cx="145.4" cy="139.63" rx="14.16" ry="2.06"/><path class="cls-9" d="M145.4,135.48s8.74-17.79,11.14-17.4c1.14.19,1.68,1.31,1.91,2.44a7.13,7.13,0,0,1-.49,4.32C156.73,127.69,153.4,133.09,145.4,135.48Z"/><path class="cls-9" d="M145.66,135.48s-8.74-17.79-11.15-17.4c-1.14.19-1.67,1.31-1.9,2.44a7.12,7.12,0,0,0,.47,4.32A19.24,19.24,0,0,0,145.66,135.48Z"/><path class="cls-15" d="M162.77,98.94s-22,6.87-17.07,36.34"/><path class="cls-15" d="M149.92,101.4s3,2,2.07,5.11"/><path class="cls-15" d="M160.56,103.22a3.79,3.79,0,0,0-4.1-.84"/><path class="cls-15" d="M151.87,112.69s-3.26-1.65-4.1.42"/><path class="cls-15" d="M143.82,116.13s2.44-.19,2.48,1"/><path class="cls-15" d="M156.48,121.44s-9.18,13.31-10.95,13.89"/><line class="cls-15" x1="157.32" y1="123.53" x2="155.18" y2="123.53"/><line class="cls-15" x1="154.76" y1="128.4" x2="151.4" y2="128.54"/><line class="cls-15" x1="152.71" y1="124.51" x2="153.08" y2="126.26"/><line class="cls-15" x1="149.14" y1="129.83" x2="149.21" y2="131.42"/><path class="cls-15" d="M134.58,121.44s9.17,13.32,10.95,13.9"/><line class="cls-15" x1="133.74" y1="123.53" x2="135.88" y2="123.53"/><line class="cls-15" x1="136.3" y1="128.4" x2="139.66" y2="128.54"/><line class="cls-15" x1="138.34" y1="124.51" x2="137.98" y2="126.26"/><line class="cls-15" x1="141.91" y1="129.83" x2="141.85" y2="131.42"/><path class="cls-16" d="M139.7,138.93c.93.57,5.57,0,9.08,0s-.93-4.27-1.16-5.34-4.07-.27-5,.39a30.68,30.68,0,0,1-4,1.89S138.77,138.36,139.7,138.93Z"/><path class="cls-17" d="M150.12,138c0,.53-.33.89-1.34.9-3.51,0-8.15.58-9.08,0s-1.13-3.07-1.13-3.07h.1c.1.72.38,2.27,1.09,2.71.94.57,5.58,0,9.08,0C149.59,138.54,150,138.34,150.12,138Z"/><path class="cls-18" d="M58.38,122.47c-.34-.45-.61-.93-1-1.34a10.12,10.12,0,0,0-4.23-2.89c-1.06-.38-2.14-.69-3.21-1l-1-.33c-.18-.07-.36-.17-.53,0s0,.36,0,.53a5.39,5.39,0,0,0,1.17,1.74,10.46,10.46,0,0,0,3.54,2.41c.94.42,1.91.8,2.82,1.29a11.61,11.61,0,0,1,1.53,1,5.09,5.09,0,0,1,1,1,.75.75,0,0,1,.16.45c0,1.63.09,3.26,0,4.88a1.56,1.56,0,0,1-.1.57c-.11-.27-.19-.5-.3-.72a9,9,0,0,0-4.14-4.33l-.4-.21c-.13-.07-.25-.14-.39,0s-.1.25-.08.39a1.66,1.66,0,0,0,0,.22,8.86,8.86,0,0,0,2.26,4.08,5.43,5.43,0,0,0,2.63,1.5c.26,0,.26.06.22.32-.11.88-.31,1.74-.49,2.61a7.12,7.12,0,0,0-.17,1.35.41.41,0,0,0,.16-.23,40.18,40.18,0,0,0,1.54-4.65,5.62,5.62,0,0,0,.14-.82,8.85,8.85,0,0,1,1.75-4.42,12.31,12.31,0,0,1,2.44-2.45c1.23-1,2.49-1.92,3.7-2.94A24,24,0,0,0,72,115.63c.18-.27.39-.53.58-.8s.24-.34.12-.55-.36-.21-.58-.17a12.72,12.72,0,0,0-3.5,1,19.51,19.51,0,0,0-3.46,2,15.07,15.07,0,0,0-3.8,4.16A14.73,14.73,0,0,0,60,124.5c-.13.39-.25.77-.37,1.18-.11-.09-.07-.21-.08-.31-.14-1.38-.14-2.77-.31-4.15,0-.4-.06-.8-.13-1.2a.81.81,0,0,1,.23-.72,14.87,14.87,0,0,1,1.49-1.48c.47-.4.95-.79,1.41-1.22a14.05,14.05,0,0,0,4-6.8c0-.17.07-.33-.09-.45a.36.36,0,0,0-.42,0,13.82,13.82,0,0,0-4,3.24,14.93,14.93,0,0,0-2.6,4.78l-.15.43c-.13,0-.08-.15-.09-.23a10,10,0,0,1,.53-3.8c.22-.72.44-1.43.67-2.14a19.17,19.17,0,0,1,1.09-2.71,17.29,17.29,0,0,0,.88-2.3c.23-.71.46-1.42.73-2.12a21.26,21.26,0,0,0,1.22-5.84,16.38,16.38,0,0,0,.08-2.8,16.08,16.08,0,0,0-1.07-4.58s0-.07,0-.1A.24.24,0,0,0,62.6,91a.22.22,0,0,0-.18.21,3,3,0,0,0,0,.42c0,.44,0,.88,0,1.32a16.59,16.59,0,0,1-.91,5.17l-2,5.9c-.27.79-.57,1.57-.87,2.35a15.48,15.48,0,0,0-.94,5.08.8.8,0,0,1,0,.34s-.06,0-.07-.08a22.8,22.8,0,0,0-1-3.14,28.94,28.94,0,0,0-1.26-3.19,27.71,27.71,0,0,0-1.56-2.75A22.85,22.85,0,0,0,50,98.54a21.84,21.84,0,0,0-4.63-3.17.33.33,0,0,0-.23-.07,1.35,1.35,0,0,0,.17.56,31.82,31.82,0,0,0,1.56,3.35c.39.73.76,1.48,1.15,2.21a10.14,10.14,0,0,0,.55,1c1.34,2,2.63,4,4,6.06.65,1,1.4,1.91,2.06,2.89a31.22,31.22,0,0,1,1.78,3.06c.13.23.24.47.39.77-.37-.36-.63-.73-.93-1.07a20.2,20.2,0,0,0-2.63-2.43,25.51,25.51,0,0,1-4.4-4.59c-.54-.73-1.06-1.47-1.65-2.16-.08-.09-.16-.19-.25-.28a.33.33,0,0,0-.37-.11.36.36,0,0,0-.23.32,2,2,0,0,0,0,.64,8.82,8.82,0,0,0,.66,2.36,22.38,22.38,0,0,0,2.47,4.23A9,9,0,0,0,53,115a15.65,15.65,0,0,0,2.17.88c.74.23,1.46.5,2.18.78a.42.42,0,0,1,.29.42c.16,1.18.32,2.35.46,3.52.06.51.13,1,.22,1.5C58.36,122.25,58.37,122.36,58.38,122.47Z"/><path class="cls-19" d="M58.54,113.78c.13-.08.13-.21.16-.32.3-1.12.48-2.27.69-3.41a16,16,0,0,1,.63-2.22c.33-1,.71-1.91,1.07-2.87a9.29,9.29,0,0,1,.35-.87,12.58,12.58,0,0,0,.74-2.22c.22-.9.47-1.79.66-2.69a19.05,19.05,0,0,0,.36-2.61c0-1-.08-1.91-.12-2.93a.33.33,0,0,0-.12.28,20.46,20.46,0,0,1-.27,3.41,11.2,11.2,0,0,1-.48,2.06c-.21.61-.33,1.25-.48,1.88a22.34,22.34,0,0,1-1,2.86c-.24.61-.44,1.24-.66,1.85s-.34,1-.49,1.43a15.66,15.66,0,0,0-.45,1.76c-.1.51-.14,1-.23,1.53-.13.72-.19,1.45-.28,2.17C58.63,113.18,58.58,113.48,58.54,113.78Z"/><path class="cls-19" d="M57.44,114c-.17-.59-.48-1.11-.69-1.67s-.5-1.25-.79-1.86-.57-1.25-.84-1.88c-.21-.45-.43-.9-.61-1.37a1.73,1.73,0,0,0-.16-.3c-.47-.77-.89-1.58-1.43-2.31-.41-.55-.71-1.17-1.17-1.69-.25-.28-.42-.63-.65-.92-.37-.46-.76-.9-1.14-1.34-.88-1-1.83-2-2.7-3a.84.84,0,0,0-.43-.33,2.41,2.41,0,0,0,.38.64c.62.72,1.24,1.44,1.85,2.17s1.14,1.45,1.7,2.18c.29.39.52.8.79,1.19.77,1.08,1.45,2.2,2.11,3.34a9.26,9.26,0,0,1,.73,1.44,2,2,0,0,0,.11.2c.42.68.73,1.42,1.1,2.13.28.54.57,1.09.82,1.65S57.12,113.42,57.44,114Z"/><path class="cls-19" d="M70.43,115.41c-.29.14-.59.26-.87.43-.89.52-1.78,1-2.63,1.61a16.64,16.64,0,0,0-3,2.34,19.34,19.34,0,0,0-1.52,1.89,15.18,15.18,0,0,0-1.09,1.65c-.12.21-.17.45-.28.66a.1.1,0,0,0,0,.16s.09,0,.12-.07c.28-.41.64-.75.94-1.14.58-.77,1.15-1.54,1.77-2.28A10.8,10.8,0,0,1,65.59,119c.51-.39,1-.76,1.56-1.14s1.2-.88,1.83-1.28c.48-.32.93-.69,1.4-1A.13.13,0,0,0,70.43,115.41Z"/><path class="cls-19" d="M56.44,121.85a4,4,0,0,0-.69-.68,7.6,7.6,0,0,0-2-1.36c-1-.45-1.94-.94-2.92-1.4-.14-.06-.27-.19-.45-.13,0,.13.08.17.15.22a23.15,23.15,0,0,0,2.88,1.7c.7.36,1.36.78,2,1.19l.73.4A.35.35,0,0,0,56.44,121.85Z"/><polygon class="cls-12" points="59.25 135.84 61.23 138.34 54.09 140.98 52.1 138.48 59.25 135.84"/><ellipse class="cls-12" cx="56.64" cy="138.38" rx="1.62" ry="0.62" transform="translate(-38.06 22.67) rotate(-17.04)"/><ellipse class="cls-13" cx="56.64" cy="138.38" rx="1.62" ry="0.62" transform="translate(-38.06 22.67) rotate(-17.04)"/><polygon class="cls-12" points="56.12 136.21 56.88 139 48.89 140.02 48.13 137.22 56.12 136.21"/><polygon class="cls-14" points="56.12 136.21 56.88 139 48.89 140.02 48.13 137.22 56.12 136.21"/><ellipse class="cls-12" cx="52.49" cy="138.08" rx="1.7" ry="0.59" transform="translate(-14.43 6.39) rotate(-6.12)"/><ellipse class="cls-13" cx="52.49" cy="138.08" rx="1.7" ry="0.59" transform="translate(-14.43 6.39) rotate(-6.12)"/><polygon class="cls-12" points="56.87 134.53 57.63 137.32 49.64 138.34 48.88 135.54 56.87 134.53"/><ellipse class="cls-12" cx="53.24" cy="136.4" rx="1.7" ry="0.59" transform="translate(-14.24 6.46) rotate(-6.12)"/><ellipse class="cls-13" cx="53.24" cy="136.4" rx="1.7" ry="0.59" transform="translate(-14.24 6.46) rotate(-6.12)"/><rect class="cls-12" x="133.52" y="99.48" width="10.2" height="5.23" transform="translate(-33.03 115.28) rotate(-40.77)"/><ellipse class="cls-13" cx="138.66" cy="102.15" rx="2.15" ry="1.07" transform="translate(-33.06 115.32) rotate(-40.77)"/></g></g></svg>