<svg xmlns="http://www.w3.org/2000/svg" viewBox="0 0 200 150"><defs><style>.cls-1{fill:#c8f0f5;}.cls-2{fill:none;}.cls-3{isolation:isolate;}.cls-4{fill:#f0f0f0;}.cls-5{fill:#40aacf;}.cls-6{fill:#fff;}.cls-7{fill:#ffb68e;}.cls-8{fill:#bc8ecc;}.cls-9{fill:#34325c;}.cls-10{fill:#333d4f;}.cls-11{fill:#f1bbb6;}.cls-12{fill:#546280;}.cls-13{fill:#081f33;}.cls-14{fill:#495670;}.cls-15{fill:#cd9cde;}.cls-16{fill:#343435;}.cls-17{fill:#e2aaa6;}.cls-18{fill:#3b455a;}.cls-19{fill:#b97262;}.cls-20{fill:#59595b;}.cls-21{fill:#edb2ae;}</style></defs><title>2 ill affiliate_2</title><g id="Слой_2" data-name="Слой 2"><g id="Слой_1-2" data-name="Слой 1"><path class="cls-1" d="M51.63,22.08c-1,.25-1.94.54-2.9.87A21,21,0,0,0,37.44,32c-5.72,9.6.22,14.23,4,20.31A5.57,5.57,0,0,1,42.15,54a7.42,7.42,0,0,1,.14,1.64c.08,16.5-11.22,12.31-16.93,17.18a14,14,0,0,0-4.53,12.68C22.91,96,34.05,96.28,40.65,96.65c29.7,1.68,59.47,3.66,89-1.83,6.38-1.19,24.33-2.67,30.68-4.07,2.9-.63,6.54-2.3,6.55-6,0-2.61-1.9-4.56-3.79-5.58-3.3-1.78-7.62-3.34-7-9.18a7.07,7.07,0,0,1,2.81-5.07,16.41,16.41,0,0,1,3.73-1.43,4.85,4.85,0,0,0,3.07-2.83c1.42-4.09-2.14-6.53-4.66-6.9-3-.46-5.46-3.33-4.42-7.67.73-3,3.09-5,3.8-8.08a10,10,0,0,0,.1-3.77,13.13,13.13,0,0,0-5.2-8.49c-2.52-1.85-17-2.71-19.9-3.39-11.2-2.63-22.66-2.87-34-2.84q-13.67,0-27.31.59C66.58,20.37,59,20.17,51.63,22.08Z"/><rect class="cls-2" width="200" height="150"/><g id="EOkKWi" class="cls-3"><path class="cls-4" d="M100.29,125l12.19.34c3.3.24,6.6.22,9.89.42,1.76.12,3.52.1,5.27.24,2.38.2,4.76.38,7.13.69a32.11,32.11,0,0,1,5.4,1.18,10.06,10.06,0,0,0,2.43.27c1.52.08,3,.2,4.55.3,1.86.12,3.71.43,5.56.58,1.42.11,2.82.33,4.22.52s3.06.52,4.58.83c2.29.47,4.55,1,6.78,1.7a13.33,13.33,0,0,1,4,1.72,1.51,1.51,0,0,1,.18,2.6,5.53,5.53,0,0,1-2.74,1.21,32.39,32.39,0,0,1-5.19.71c-2.5.17-5,.31-7.5.39-2.88.08-5.75-.06-8.61-.17-2.43-.11-4.84-.41-7.26-.66-1.55-.17-3.09-.34-4.64-.49l-6.78-.66c-2-.18-4-.34-6-.53-2.57-.23-5.15-.26-7.72-.28a19.47,19.47,0,0,0-8.38,1.76,41.68,41.68,0,0,1-11,3.51c-2.06.31-4.12.56-6.19.69-2.27.14-4.53.36-6.79.49-1.48.09-3,.07-4.43.13-5.81.23-11.6-.2-17.4-.23a54.73,54.73,0,0,0-6.51.35c-3.12.35-6.22.85-9.35,1.16-1.56.15-3.13.28-4.7.37a64.11,64.11,0,0,1-7.46.23,15.87,15.87,0,0,1-7.43-2.21,7.09,7.09,0,0,1-2.42-2.42,1.36,1.36,0,0,1,.22-1.94,7.33,7.33,0,0,1,2.66-1.3,65.37,65.37,0,0,1,7-2c2.82-.67,5.67-1.19,8.49-1.81,2.07-.46,4.11-1.07,6.19-1.46a31.54,31.54,0,0,0,6.17-2.31,26,26,0,0,1,6.69-1.8c2.17-.29,4.34-.61,6.52-.84,1.62-.17,3.23-.4,4.86-.5s3.25-.3,4.87-.42c1.18-.09,2.37-.15,3.55-.15,2.32,0,4.64-.08,7-.07,2.1,0,4.2,0,6.31,0Z"/></g><path class="cls-5" d="M70.88,19V124.12a8.45,8.45,0,0,0,8.38,8.38h49a8.46,8.46,0,0,0,8.38-8.38V19a8.46,8.46,0,0,0-8.38-8.38H79.26A8.45,8.45,0,0,0,70.88,19Z"/><path class="cls-6" d="M100.21,122.6a5.14,5.14,0,1,1,5.14,5.14A5.11,5.11,0,0,1,100.21,122.6Z"/><rect class="cls-6" x="76.4" y="21.27" width="55.24" height="91.62"/><g id="Man"><path class="cls-2" d="M71.47,68.53h0Z"/><path class="cls-2" d="M69.11,72.39v0h0Z"/><path class="cls-2" d="M68.82,73.06,68.7,73l.1.1Z"/><path class="cls-2" d="M66.54,73s0,0,0,0h0Z"/><path class="cls-2" d="M67.52,80.4l0,0h-.05Z"/><polygon class="cls-2" points="67.06 82.86 67.06 82.87 67.06 82.86 67.06 82.86"/><path class="cls-2" d="M71,80.89l-.08-.08C71,80.87,71,80.89,71,80.89Z"/><path class="cls-2" d="M59.64,66.91a.43.43,0,0,1,0,.11l.05,0A.13.13,0,0,0,59.64,66.91Z"/><path class="cls-2" d="M60.37,67.68l0,0-.05,0A0,0,0,0,0,60.37,67.68Z"/><path class="cls-2" d="M67.77,67.23l-.1,0A.09.09,0,0,0,67.77,67.23Z"/><polygon class="cls-2" points="69.81 70.18 69.81 70.18 69.81 70.18 69.81 70.18"/><polygon class="cls-2" points="70.88 68.38 70.87 68.38 70.87 68.38 70.88 68.38"/><path class="cls-2" d="M69.26,71.82l0-.08-.08,0A.54.54,0,0,0,69.26,71.82Z"/><path class="cls-2" d="M65.94,82.29l0,0h0Z"/><path class="cls-2" d="M63.83,69.3l0,0S63.83,69.31,63.83,69.3Z"/><path class="cls-2" d="M64.76,83.2a.36.36,0,0,0,0-.09A.18.18,0,0,0,64.76,83.2Z"/><path class="cls-2" d="M64.76,82.36h0Z"/><path class="cls-2" d="M64.19,82.69l0,0a.24.24,0,0,1,0-.08A.05.05,0,0,0,64.19,82.69Z"/><path class="cls-2" d="M70.58,73.43l0,0A.05.05,0,0,0,70.58,73.43Z"/><path class="cls-2" d="M63.58,82l0,.06S63.58,82,63.58,82Z"/><path id="Face" class="cls-7" d="M66.2,59.57a6,6,0,0,0,.51-.37,11.58,11.58,0,0,0,2.05-2.26c.16-.23,0-.51.16-.72h0a3,3,0,0,1,.69-1.28h0c.1-.69-.11-1-.77-1h0a2.24,2.24,0,0,0-.51.36c-.16.19-.29.16-.34-.09s-.11-.69-.17-1h0l-.1-.42a2,2,0,0,1-.17-.29,1.3,1.3,0,0,0-1.43-.91h0l-.68.1a3.24,3.24,0,0,1-.86.24h0a.69.69,0,0,1-.42.1,3.51,3.51,0,0,1-1.11.25h0l-1.13.19h0a16.32,16.32,0,0,0-.31,4.3,4.42,4.42,0,0,0,.27,1.49c.49,1.22,1.25,2.07,2.72,1.84a7.92,7.92,0,0,0,1.06-.29c.26-.09.2.08.21.21H66C65.92,59.76,66,59.67,66.2,59.57Z"/><path id="Left_Foot_Skin" data-name="Left Foot Skin" class="cls-7" d="M56.52,128.32h0a1.64,1.64,0,0,1-.18.58h0c.3,0,.53.18.5.51s.18.45.54.41a6.14,6.14,0,0,1,2.26-.14,12.5,12.5,0,0,0,.17-1.37H56.52Z"/><path id="Left_Bycepse" data-name="Left Bycepse" class="cls-8" d="M58.38,72.54h0l-.26-.4a1.92,1.92,0,0,1-.42-.6,11.9,11.9,0,0,0-.86-1l-1.44.17h0L55,71a2.18,2.18,0,0,0-.25.59,1.47,1.47,0,0,0-.26.76c-.21.62-.6,1.16-.76,1.79-.16.06-.19.22-.26.34h0a6.05,6.05,0,0,1-1.69,2.2l.34,0a10.19,10.19,0,0,0,1.86-.95l.69-.46h0a2.26,2.26,0,0,0,.59-.37l3.34-2.07C58.64,72.7,58.48,72.64,58.38,72.54Z"/><path id="Right_Foot_Skin" data-name="Right Foot Skin" class="cls-7" d="M70.82,128.49a14.26,14.26,0,0,0-2.48.86h0c0,.11,0,.21.08.32h0c.5-.18.55.29.76.53l1.57-1.3a1.23,1.23,0,0,1,.48-.25h0c0-.13-.08-.27-.13-.4h0C71,128.34,71,128.46,70.82,128.49Z"/><path id="Neck" class="cls-7" d="M70.16,59.86a15.47,15.47,0,0,1-.46-1.61.08.08,0,0,0,0-.08h0L69.45,58l-.36-.5a2.68,2.68,0,0,1-.17-1.28h0c-.19.21,0,.49-.16.72a11.58,11.58,0,0,1-2.05,2.26,6,6,0,0,1-.51.37c-.16.1-.28.19-.25.39h-.08l-.1.49a4.43,4.43,0,0,1-.53,1h0a2.79,2.79,0,0,0,.9.15A11.12,11.12,0,0,0,70.71,61,4.17,4.17,0,0,1,70.16,59.86Z"/><path id="Hair" class="cls-9" d="M70.12,50.1c-.29-.5-.53-1-1.11-1.27-.16,0-.17-.22-.34-.2A4.55,4.55,0,0,0,66,48a19.2,19.2,0,0,0-2.22.5l-2.85,0a3,3,0,0,0-2.08.83,1.31,1.31,0,0,0-.35,1.57A1.71,1.71,0,0,0,60,52.14h0a2.08,2.08,0,0,0,.89.17h0a3.6,3.6,0,0,0,1,.09h0l1.13-.19h0A3.51,3.51,0,0,0,64.16,52a.69.69,0,0,0,.42-.1h0a3.24,3.24,0,0,0,.86-.24l.68-.1h0s0,0,0-.05,0,0,0,.05h0a1.3,1.3,0,0,1,1.43.91,2,2,0,0,0,.17.29l.1.42h0c.06.35.11.7.17,1s.18.28.34.09a2.24,2.24,0,0,1,.51-.36h0c.66,0,.87.33.77,1h0a3,3,0,0,0-.69,1.28h0a2.68,2.68,0,0,0,.17,1.28l.36.5.24.17h0a19.6,19.6,0,0,1,.94-2.7,4,4,0,0,0,.42-1.21A4.8,4.8,0,0,0,70.12,50.1Z"/><path id="Left_Foot" data-name="Left Foot" class="cls-10" d="M59.64,129.68a6.14,6.14,0,0,0-2.26.14c-.36,0-.58.05-.54-.41s-.2-.47-.5-.51-.38,0-.45.23a1.81,1.81,0,0,1-.58.71c-.37.36-.84.6-1.23.94a19.42,19.42,0,0,1-3.14,1.62.73.73,0,0,0-.48.44.35.35,0,0,0-.1.34,1,1,0,0,0,.92,1,6.21,6.21,0,0,0,1.66-.17,2.93,2.93,0,0,0,1.09-.28,6.49,6.49,0,0,0,1.36-.42l.79-.23h0l0,0a1.1,1.1,0,0,0,.52-.17h.08l2.25-.83a.89.89,0,0,0,.55-.45,1.51,1.51,0,0,0,.32-.88A1,1,0,0,0,59.64,129.68Z"/><path id="Left_Hand" data-name="Left Hand" class="cls-7" d="M55.38,68.63l-.06-.75a1.2,1.2,0,0,0-.55-.75h0a.63.63,0,0,0-.4.08,5.2,5.2,0,0,0-.42.72,16.8,16.8,0,0,1-2.51,4.54h0a10.27,10.27,0,0,0-1.61,2,1.09,1.09,0,0,0-.21.45,1.12,1.12,0,0,0,.75,1.68,2.35,2.35,0,0,0,1.71.1h0l-.34,0a6.05,6.05,0,0,0,1.69-2.2h0c.07-.12.1-.28.26-.34.16-.63.55-1.17.76-1.79a1.47,1.47,0,0,1,.26-.76A2.18,2.18,0,0,1,55,71c-.1-.15.06-.23.09-.35v-.16a3.24,3.24,0,0,0,.27-1.4.86.86,0,0,1,.06-.5Z"/><path id="Left_Telephone" data-name="Left Telephone" class="cls-11" d="M58.46,66.33a16.74,16.74,0,0,0-.24-1.75.87.87,0,0,0-.87-.78,9.63,9.63,0,0,0-2.56.24.53.53,0,0,0-.47.48,7,7,0,0,0,0,2.09h0v.6a.63.63,0,0,1,.4-.08h0a1.2,1.2,0,0,1,.55.75l.06.75h0a.86.86,0,0,0-.06.5,3.24,3.24,0,0,1-.27,1.4v.16h.35l1.44-.17a4.79,4.79,0,0,1,1-.18h0c-.21-.49-.43-1-.65-1.45h0v-1a1,1,0,0,1,.43-.49,1.13,1.13,0,0,1,.85.31h0c0-.39,0-.79,0-1.18h0v-.09h0l0-.1Zm-.33,0c.1,0,.19.13.31.09h0C58.32,66.47,58.23,66.39,58.13,66.34Z"/><path id="Right_Foot" data-name="Right Foot" class="cls-10" d="M72,129.74c-.06-.23-.15-.46-.21-.69a.48.48,0,0,0-.52-.4h0a1.23,1.23,0,0,0-.48.25l-1.57,1.3c-.21-.24-.26-.71-.76-.53h0c-.14.08-.3.17-.33.32a6.34,6.34,0,0,1-1,2.08h0l-.27.41-.77,1.08-.08.09c-.57.56-.67.85-.42,1.32,0,.11.14.14.25.17s0,0,0,.07h.51s0-.05,0-.07a6.55,6.55,0,0,0,2-1.45,2.65,2.65,0,0,0,.58-.53l.86-.77a.71.71,0,0,0,.27-.22,9.08,9.08,0,0,0,1.43-1.41A.91.91,0,0,0,72,129.74Z"/><path id="Right_Leg" data-name="Right Leg" class="cls-12" d="M70.65,88a1.52,1.52,0,0,1-.2-.06c-.86,0-1.7-.22-2.56-.3a11.52,11.52,0,0,0-1.18,0,1.6,1.6,0,0,1-.1.23,15.17,15.17,0,0,0-1.08,2.31c-.52,1.29-1,2.62-1.46,3.93l-.17.25a16.81,16.81,0,0,1-.68,2,7.63,7.63,0,0,1-.51,1.62,11.23,11.23,0,0,1-.52,2c-.29,1.26-.61,2.5-.93,3.75a6,6,0,0,1-.08.85c0,.17.07.36-.09.51V105c0,.14.06.31-.08.42h0l-.09.26h0a.29.29,0,0,1,0,.43l.09,1.61.08.09c0,.11,0,.22,0,.33.22.91.43,1.82.64,2.73h0l.09.09c0,.25.14.45.17.68.24.81.47,1.62.71,2.43a1.88,1.88,0,0,1,.06.46h0c.24,0,.18.26.24.39.47,1.23.93,2.46,1.39,3.7l.14.31v0c0,.1,0,.17.1.25.4,1.1.8,2.21,1.19,3.32h0c.19.64.53,1.23.68,1.89.35,1.51.83,3,1.26,4.47a.54.54,0,0,0,.53.45h0a14.26,14.26,0,0,1,2.48-.86c.13,0,.2-.15.28-.24A3,3,0,0,0,71,127c-.27-1.6-.55-3.2-.83-4.81a4.37,4.37,0,0,1-.09-.81c-.22-2.38-.61-4.75-.81-7.13a49.85,49.85,0,0,1-.4-5,22,22,0,0,1,.45-3.7l.84-2.72a.92.92,0,0,0,0-.09l.29-.85c.2-.61.42-1.22.6-1.84.36-1.31.76-2.61,1-4a8,8,0,0,0,.41-1.53l.19-.84c.22-.08.19-.3.24-.46a37.24,37.24,0,0,0,1.27-4.74A15.61,15.61,0,0,0,70.65,88Zm-1,8.36Zm-4.43,6.47Zm0,0h0Zm1.94-4h0S67.22,98.79,67.2,98.79Z"/><g id="Right_Hand" data-name="Right Hand"><polygon class="cls-7" points="58.46 66.33 58.47 66.33 58.46 66.33 58.46 66.33 58.46 66.33"/><path class="cls-7" d="M76.42,74.44h0c-.3,0-.42-.35-.68-.46l-2.13-.91a3.66,3.66,0,0,0-.77-.44.26.26,0,0,0-.26.17h0c-.32.27-.46.67-.76,1v.08l-.23.26h0c-.07.11-.19.18-.2.33l-.08.24h0l-.16.1h0a.19.19,0,0,1,0,.08l-.07.15c-.49.27-1,0-1.4-.09a6.35,6.35,0,0,1-1.58-.57h0a7.35,7.35,0,0,1-1.19-.51,15.64,15.64,0,0,1-2.38-1h0a.48.48,0,0,1-.35-.16h0a1.84,1.84,0,0,1-.61-.34h0l-.32-.09c-.67-.38-1.34-.75-2-1.14a2,2,0,0,1-.64-.47h0l-.13,0h0c-.08-.14-.26-.22-.29-.39h0L60,70.11l-.17-.19c-.07-.29-.33-.48-.42-.76h0l0-.08h0l-.09-.16h0a1.06,1.06,0,0,1-.26-.43l-.41-.61h0l-.15-.18h0a1.13,1.13,0,0,0-.85-.31,1,1,0,0,0-.43.49v1h0c.22.48.44,1,.65,1.45h0l.29.5h0l.59.87.08,0h0a5,5,0,0,0,.77,1l.6.6,1.43,1.21h0c.59.34,1.09.82,1.7,1.13l.09.06a5.82,5.82,0,0,0,.94.61h0a7.24,7.24,0,0,0,1.8,1h0l.25.1a16.5,16.5,0,0,0,2.56,1.08l.43.16c.91.32,1.87.38,2.8.62a.19.19,0,0,0,.11.07l-.06-.07c.4,0,.82.06,1.12-.3a4.58,4.58,0,0,0,.69-.9h0a39.31,39.31,0,0,0,2.5-3.38.31.31,0,0,0,.13-.27h-.23Z"/></g><path class="cls-13" d="M58.54,110.37c.05.1.12.18.26.14a.12.12,0,0,0,0-.1.21.21,0,0,0-.28,0h0Z"/><g id="Left_Leg" data-name="Left Leg"><polygon class="cls-14" points="65.27 102.8 65.27 102.8 65.27 102.8 65.27 102.8"/><path class="cls-14" d="M65.86,87.46a17.6,17.6,0,0,1-3.24-.16h0c-1,0-2-.07-3,0h0v0A84.46,84.46,0,0,0,58,95.63c-.24,1.57-.45,3.15-.66,4.73a30,30,0,0,0-.35,4.13c-.14,1.79-.07,3.57-.09,5.36a6.24,6.24,0,0,0-.08,1c0,1,0,1.9-.11,2.84-.11,1.45-.17,2.91-.15,4.36,0,.71-.08,1.41-.09,2.11,0,1.71,0,3.42-.11,5.13,0,.63,0,1.26-.11,1.89-.05.4-.19.9.32,1.17h3.29a.92.92,0,0,0,.32-.58c.32-1.59.63-3.18.95-4.77a13.13,13.13,0,0,0,.36-1.87,12.54,12.54,0,0,0,.32-1.62A9.23,9.23,0,0,0,62,118.2l0-.13a8.51,8.51,0,0,0,.32-1.58,2,2,0,0,0,.18-.75,1.88,1.88,0,0,0,.16-.7,1.11,1.11,0,0,0,.1-.51h0a1.88,1.88,0,0,0-.06-.46c-.24-.81-.47-1.62-.71-2.43,0-.23-.22-.43-.17-.68l-.09-.09h0c-.21-.91-.42-1.82-.64-2.73,0-.11,0-.22,0-.33l-.08-.09-.09-1.61a.29.29,0,0,0,0-.43h0l.09-.26h0c.14-.11.06-.28.08-.42v-.09c.16-.15.06-.34.09-.51a6,6,0,0,0,.08-.85c.32-1.25.64-2.49.93-3.75a11.23,11.23,0,0,0,.52-2,7.63,7.63,0,0,0,.51-1.62,16.81,16.81,0,0,0,.68-2l.17-.25c.49-1.31.94-2.64,1.46-3.93a15.17,15.17,0,0,1,1.08-2.31,1.6,1.6,0,0,0,.1-.23Z"/><rect class="cls-14" x="65.26" y="102.79" transform="translate(-39.08 40.04) rotate(-26.57)"/></g><g id="TShirt"><path class="cls-8" d="M59.41,80.08c-.13,2.23-.14,4.47-.44,6.69a.41.41,0,0,0,.35.53v0h0c1-.09,2,0,3,0h0a17.6,17.6,0,0,0,3.24.16l.85.09a11.52,11.52,0,0,1,1.18,0c.86.08,1.7.28,2.57.3l.19.06a15.61,15.61,0,0,1,3.54.53.86.86,0,0,0,.2-.5c.12-1.3.31-2.6.51-3.9a75.66,75.66,0,0,1,2-9.26.6.6,0,0,1,.37-.39h0c.44,0,.56-.34.67-.66a24.28,24.28,0,0,0,.94-3.94V68.56h0a6.82,6.82,0,0,0-1.19-3.37,1.79,1.79,0,0,0-1.18-.81h0a4.19,4.19,0,0,0-1-.72A44.92,44.92,0,0,1,70.86,61c-.13-.1-.26,0-.4,0a11.12,11.12,0,0,1-4.57.67,2.79,2.79,0,0,1-.9-.15h0a2.94,2.94,0,0,0-1.32.71A25.63,25.63,0,0,0,61.61,64h0l-.15.18,0,0a32.35,32.35,0,0,0-3,2.09h0l0,.1h0v.09h0c0,.39,0,.79,0,1.18l.12.14a.49.49,0,0,1-.21,0l.41.61a.94.94,0,0,0,.25.43h0l.09.16h0l0,.08h0c.08.28.34.47.41.76l.17.19.16.09h0c0,.17.21.25.29.39h0l.14,0h0a1.93,1.93,0,0,0,.63.47c.67.39,1.34.76,2,1.14l.32.09h0a1.79,1.79,0,0,0,.62.34h0a.44.44,0,0,0,.34.16h0a15.64,15.64,0,0,0,2.38,1,7.35,7.35,0,0,0,1.19.51h0a6.5,6.5,0,0,0,1.58.57c.46.1.92.36,1.4.09l.08-.15a.19.19,0,0,0,0-.08h0l.16-.1h0l.08-.24c0-.15.13-.22.2-.33h0l.23-.26v-.08c.3-.29.45-.69.76-1h0a.27.27,0,0,1,.26-.17,4,4,0,0,1,.78.44l2.12.91c.26.11.38.41.68.46h.23a.29.29,0,0,1-.13.27,39.31,39.31,0,0,1-2.5,3.38h0a5,5,0,0,1-.68.9c-.31.36-.72.31-1.13.3a.2.2,0,0,1,.06.07.19.19,0,0,1-.11-.07c-.92-.24-1.89-.3-2.8-.62l-.43-.16a16.5,16.5,0,0,1-2.56-1.08l-.25-.1h0a7.24,7.24,0,0,1-1.8-1h0a6.29,6.29,0,0,1-.94-.61l-.08-.06c-.61-.31-1.12-.79-1.71-1.13a.44.44,0,0,1-.2,0l-.09-.22c.19.11.32.28.54.24h0l-1.43-1.21L60.07,76h0c0,.07,0,.17,0,.23m-.42-9.76-.12,0a.33.33,0,0,1,.24,0A.17.17,0,0,1,59.66,66.51Zm.39,1.16.05,0,0,0A0,0,0,0,1,60.05,67.67ZM66.3,73h0a.05.05,0,0,1,0,0Zm1.13-5.73.09,0A.08.08,0,0,1,67.43,67.28Zm1.12,5.81-.1-.1.12.07Zm.31-.7h0Zm.16-.57L69,71.71l.08,0A.19.19,0,0,0,69,71.82Zm.54-1.64Zm1.06-1.8Zm.6.16h0ZM64,82.74l0,0a.05.05,0,0,1,.05,0A.24.24,0,0,0,64,82.74Zm.51.37,0,.09S64.47,83.14,64.48,83.11Zm0-.75h0Zm1.17,0h0l0,0A0,0,0,0,1,65.68,82.32Zm1.13.55h0Zm.47-2.47,0,0h.06S67.28,80.39,67.28,80.4Zm3.41.41a.6.6,0,0,1,.08.08S70.7,80.87,70.69,80.81Z"/><path class="cls-8" d="M58.48,71.37l-.16-.23-.2-.3-.29-.5-.18,0a4,4,0,0,0-.91.16,10.31,10.31,0,0,1,.71,1,1.92,1.92,0,0,0,.42.6l.26.4h0c.1.1.26.16.18.35.37.16.82-.1,1.13-.31C59.19,72.24,58.75,71.66,58.48,71.37Z"/></g><path class="cls-15" d="M52.87,70.34a18.41,18.41,0,0,1-1.43,2.13h0a10.27,10.27,0,0,0-1.61,2,1.09,1.09,0,0,0-.21.45,1.12,1.12,0,0,0,.74,1.68,2.38,2.38,0,0,0,1.72.1l-.34,0a6.05,6.05,0,0,0,1.69-2.2c.07-.12.1-.28.26-.34.16-.63.55-1.17.76-1.79a1.47,1.47,0,0,1,.26-.76c0-.22,0,0,.1-.24a.26.26,0,0,1,0-.11A10.49,10.49,0,0,0,52.87,70.34Z"/><rect class="cls-16" x="54.39" y="64.72" width="1.12" height="0.42" rx="0.2" ry="0.2" transform="translate(119.87 9.98) rotate(90)"/></g><g id="Woman"><polygon class="cls-17" points="138.66 60.5 134.48 61.93 128.87 70.67 130.57 76.02 134.35 73.68 138.66 60.5"/><polygon class="cls-17" points="155.75 73.42 150.14 63.76 146.39 61.7 145.42 62.67 149.49 70.67 150.53 73.68 154.31 74.59 155.75 73.42"/><path class="cls-10" d="M130.44,131.64l-.38,1.63,4.06,1.19a.72.72,0,0,0,.69-.12l.94-.42a.47.47,0,0,0-.09-.78l-2.43-1.22-2.65-1.67Z"/><polygon class="cls-12" points="131.47 87.93 131.04 92.17 134.83 111.11 130.34 131.18 133.05 132.01 141.81 109.51 142.29 102.63 141.11 88.38 131.47 87.93"/><polygon class="cls-14" points="150.88 90.52 150.97 108.42 147.44 131.48 144.85 131.46 143.35 110.15 139.95 88.83 150.88 90.52"/><path class="cls-18" d="M145.21,132.77l2.54,1.54a.75.75,0,0,0,1-.23h0a1.53,1.53,0,0,0-.13-1.82l-.73-.84a.73.73,0,0,0-.55-.25l-2.48,0v1A.73.73,0,0,0,145.21,132.77Z"/><path class="cls-17" d="M152.56,88.4c-1.87-5.8-2.07-11.89-2.61-17.93a16,16,0,0,0-1.08-5.23c-.85-1.87-1.75-3.36-3.39-3.9a28.06,28.06,0,0,0-6.72-.78c-2.06-.06-3.88,7.68-6,11.43-1.29,2.3-.49,4.34-1.36,6.85s-2,4.86-2.53,7.36c-.73,3.78-4.32,6.42-2.53,7.71l.47.16a44.13,44.13,0,0,0,9.06,2.24,36.4,36.4,0,0,0,8.28.16c3.77-.38,6.91-.4,10.23-2.37Z"/><path class="cls-19" d="M139.24,53.39c1.95-3.19,7.27-3.21,7.5,1.07a8.12,8.12,0,0,1-.55,3.79,4.07,4.07,0,0,1-2.82,2.42h0l-.09,1a.32.32,0,0,1-.07.2.31.31,0,0,1-.23,0l-1.19-.1a1.26,1.26,0,0,1-.57-.14,1.1,1.1,0,0,1-.34-1.16c0-.1,0-.2.07-.3A5.43,5.43,0,0,1,139.24,53.39Z"/><path class="cls-9" d="M146.75,48.93c1,.08,1.53,1.16,2.27,1.83s1.4.84,2,1.34a2.32,2.32,0,0,1,1,2.19,3.86,3.86,0,0,1,2.53-.07,1.68,1.68,0,0,1,.81,2.27c-.47.67-1.47.62-2,1.26-.77,1,.18,3.12-.93,3.66-.26.13-.58.1-.84.24a2.15,2.15,0,0,0-.71.88,3.71,3.71,0,0,1-4.36,1.56,4.32,4.32,0,0,1-1.55-3c-.12-1.44.7-1.73,1.11-3a5.58,5.58,0,0,0-.25-4.15,3.58,3.58,0,0,0-1.89-1.88c-.34-.12-.3.2-.62-.16a1.78,1.78,0,0,1-.27-.86C144.29,50.51,145.5,48.83,146.75,48.93Z"/><path class="cls-9" d="M136.37,48.37a11.05,11.05,0,0,0-1.52,0c-.75.14-.87.86-1.21,1.43a6.68,6.68,0,0,1-1.46,1.89,7.11,7.11,0,0,1-1.38.62,1.65,1.65,0,0,0-1,1.08c-.11.5.12,1,.05,1.54a7.76,7.76,0,0,0-.28,1.93,2.34,2.34,0,0,0,.3,1.21,1.67,1.67,0,0,0,1.36.6,3.26,3.26,0,0,1,1.49.29c1,.6.52,1.61.59,2.55a2.6,2.6,0,0,0,2.79,2.4,2.89,2.89,0,0,0,2.19-2.38c.11-.58,0-1.18.13-1.76s.61-1.27.2-1.83c-.09-.14-.24-.23-.32-.38a.82.82,0,0,1-.09-.41,1.64,1.64,0,0,1,.58-1.26,3.29,3.29,0,0,0,.77-.61,2.86,2.86,0,0,0,.28-1.15,2.39,2.39,0,0,1,1.76-1.94,6.44,6.44,0,0,0,1.61-.4c.08,0,1.32-.71,1.3-.51a2.27,2.27,0,0,0-.23-1,4.4,4.4,0,0,0-.9-1.43c-1.31-1.22-1.86.78-3,.23-.27-.13-.43-.45-.66-.67a1.8,1.8,0,0,0-1.62-.35A10.94,10.94,0,0,1,136.37,48.37Z"/><path class="cls-20" d="M143.54,65l4.22.78a.34.34,0,0,1,.24.51l-3.76,6.56a.34.34,0,0,1-.36.17l-3-.56a.35.35,0,0,1-.27-.47l2.59-6.77a.35.35,0,0,1,.39-.22Z"/><polygon class="cls-19" points="144.86 73.06 142.9 71.36 143.59 70.49 145.19 71.35 145.32 70.79 146.82 72.45 146.23 73.45 144.86 73.06"/><path class="cls-21" d="M155.72,73.58l0-.25-9.2-1.61-1.08,2,8.88,4.78.09,0h0Z"/><polygon class="cls-19" points="142.81 70.36 144.84 68.75 144.19 67.85 142.55 68.65 142.44 68.08 140.87 69.67 141.43 70.7 142.81 70.36"/><path class="cls-21" d="M141.22,69l-10.89,1.34,0,0,.4,5.7L142.22,71Z"/></g><path class="cls-8" d="M90.85,70.62h31.36A1.83,1.83,0,0,1,124,72.45V87.16A1.83,1.83,0,0,1,122.21,89h-.71v6.78L114.71,89H90.85A1.83,1.83,0,0,1,89,87.16V72.45A1.83,1.83,0,0,1,90.85,70.62Z"/><path class="cls-1" d="M116.84,54.13H93l-6.79,6.79V54.13h-.7a1.82,1.82,0,0,1-1.83-1.82V37.59a1.83,1.83,0,0,1,1.83-1.82h31.35a1.82,1.82,0,0,1,1.82,1.82V52.31A1.81,1.81,0,0,1,116.84,54.13Z"/><polygon class="cls-7" points="58.46 66.33 58.47 66.33 58.46 66.33 58.46 66.33 58.46 66.33"/><path class="cls-7" d="M60.27,70.4a.41.41,0,0,1-.12-.2h0L60,70.11l-.17-.19c-.07-.29-.33-.48-.42-.76l0-.08-.09-.16h0a1.06,1.06,0,0,1-.26-.43c-.13-.21-.27-.41-.41-.61h0l-.15-.18h0a1.13,1.13,0,0,0-.85-.31,1,1,0,0,0-.43.49v1h0l.65,1.45h0l.29.5h0l.59.87.08,0h0s.05.09.07.13A7.88,7.88,0,0,1,60.27,70.4Z"/><path class="cls-15" d="M78.31,71.55a7.42,7.42,0,0,0-.75-6.2,2.72,2.72,0,0,0-1.08-.92c-.12,0-3.86,8.25-3.9,8.37h0c-.32.27-.46.67-.76,1v.08c-.08.09-.16.17-.23.26h0c-.07.11-.19.18-.2.33l-.08.24h0l-.16.1h0a.19.19,0,0,1,0,.08l-.07.15c-.49.27-1,0-1.4-.09a6.35,6.35,0,0,1-1.58-.57,7.35,7.35,0,0,1-1.19-.51,15.64,15.64,0,0,1-2.38-1h0a.48.48,0,0,1-.35-.16h0a1.84,1.84,0,0,1-.61-.34h0l-.32-.09c-.67-.38-1.34-.75-2-1.14a2,2,0,0,1-.64-.47l-.13,0h0a1,1,0,0,0-.17-.19,7.88,7.88,0,0,0-1.41,1.46,9.72,9.72,0,0,0,.7.86l.6.6,1.43,1.21c.59.34,1.09.82,1.7,1.13l.09.06a5.82,5.82,0,0,0,.94.61h0a7.24,7.24,0,0,0,1.8,1l.25.1a16.5,16.5,0,0,0,2.56,1.08l.43.16c.91.32,2.28.9,3.32.62a34.12,34.12,0,0,0,3.44-2.48A17.33,17.33,0,0,0,78.31,71.55Z"/><rect class="cls-12" x="86.36" y="38.75" width="29.13" height="1.63"/><rect class="cls-12" x="86.36" y="42.52" width="29.13" height="1.63"/><rect class="cls-12" x="86.36" y="46.29" width="18.25" height="1.63"/><circle class="cls-6" cx="115.49" cy="79.37" r="5.73"/><path class="cls-7" d="M114.82,78.81a2.1,2.1,0,0,1,.85-.88,2.39,2.39,0,0,0,1-1.58c0-.26.65-.56.72.27A1.92,1.92,0,0,1,117,78h1.74c.53-.07.61.79.09.8h-.17v0h.1c.42,0,.42.82,0,.82h0c.31.11.29.81-.1.81h-.11c.27.06.24.31.24.52s-.91.53-1.13.59a6.94,6.94,0,0,1-2.26-.09l-.47,0h-1V78.81h.95Z"/><path class="cls-1" d="M113.53,78.62h1.16v3h-1.16v-3Z"/><path class="cls-5" d="M109.9,78.14l4,.25v3.49h-3.58L110,81a6.77,6.77,0,0,1-.24-2Z"/></g></g></svg>