<svg xmlns="http://www.w3.org/2000/svg" viewBox="0 0 415 337"><defs><style>.cls-1,.cls-13{fill:#a0e0ea;}.cls-2{fill:#007ea6;}.cls-3{fill:#c699ce;}.cls-4{fill:#fbca00;}.cls-5{fill:#ffe5c8;}.cls-6{fill:#675d67;}.cls-10,.cls-7{fill:#fcdab9;}.cls-8{fill:#ff5d41;}.cls-9{fill:#f1f5f7;}.cls-10{opacity:0.5;}.cls-11{fill:#1f87ad;}.cls-12{fill:#2fb4d3;}.cls-13{opacity:0.2;}.cls-14{fill:#f5f9fa;}</style></defs><title>IMG_About2</title><g id="shape"><path class="cls-1" d="M395.75,84.51C371.61,25.39,273.32,55.65,240.64,32.74,195.43,1.18,108.72,12.89,83.11,24.68-6.13,65.79,1,143.08,19.4,202.06c19.09,61.13,78.9,59.52,102.42,70.38,20.6,9.5,42,72.73,153.06,38,49.94-15.59,41.76-48.43,77.39-80.88C403.8,182.66,420.77,145.86,395.75,84.51Z"/><path class="cls-2" d="M288.51,56.23h4.55a48.14,48.14,0,0,1,48.14,48.14v78.25a10.33,10.33,0,0,1-10.33,10.33H250.7a10.33,10.33,0,0,1-10.33-10.33V104.37a48.14,48.14,0,0,1,48.14-48.14Z"/><rect class="cls-3" x="253.9" y="166.55" width="73.78" height="84.88" rx="19.23" ry="19.23"/><rect class="cls-3" x="299.1" y="196.35" width="94.85" height="20.61" rx="10.31" ry="10.31" transform="translate(288.63 -192.63) rotate(50.94)"/><rect class="cls-3" x="192.13" y="201.14" width="98.02" height="20.61" rx="9.08" ry="9.08" transform="translate(544.84 108.34) rotate(120)"/><rect class="cls-4" x="86.25" y="166.7" width="73.78" height="84.88" rx="19.23" ry="19.23" transform="translate(246.27 418.27) rotate(-180)"/><rect class="cls-4" x="34.49" y="195.33" width="86.95" height="20.61" rx="10.31" ry="10.31" transform="translate(295.04 240.93) rotate(120)"/><rect class="cls-4" x="125.73" y="195.78" width="86.95" height="20.61" rx="9.08" ry="9.08" transform="matrix(0.5, 0.87, -0.87, 0.5, 263.07, -43.49)"/><rect class="cls-5" x="301.16" y="223.58" width="74.16" height="15" rx="7.23" ry="7.23" transform="translate(43.56 -53.47) rotate(9.66)"/><rect class="cls-5" x="22.09" y="199.96" width="66.44" height="15" rx="7.23" ry="7.23" transform="translate(247.14 111.04) rotate(78.24)"/><ellipse class="cls-5" cx="44.63" cy="167.89" rx="10.66" ry="15.61" transform="translate(-59.9 29.14) rotate(-22.1)"/><circle class="cls-5" cx="290.64" cy="117.01" r="40.93"/><path class="cls-5" d="M290.64,153.89h0a7.2,7.2,0,0,1,7.2,7.2v13.48a0,0,0,0,1,0,0h-14.4a0,0,0,0,1,0,0V161.09A7.2,7.2,0,0,1,290.64,153.89Z" transform="translate(581.29 328.46) rotate(180)"/><circle class="cls-5" cx="254.28" cy="120.37" r="8.98"/><circle class="cls-5" cx="327.29" cy="120.37" r="8.98"/><circle class="cls-6" cx="274.84" cy="117.72" r="2.92" transform="translate(-23.19 93.82) rotate(-18.6)"/><path class="cls-6" d="M276.54,108.84l-7.28,1.72a1.39,1.39,0,0,1-1.55-.54l-.27-.57c-.22-.45.13-.93.77-1.08l7.28-1.72a1.39,1.39,0,0,1,1.55.54l.27.57C277.53,108.2,277.18,108.69,276.54,108.84Z"/><circle class="cls-6" cx="306.05" cy="117.72" r="2.92" transform="translate(96.86 370.23) rotate(-71.4)"/><path class="cls-6" d="M304.35,108.84l7.28,1.72a1.39,1.39,0,0,0,1.55-.54l.27-.57c.22-.45-.13-.93-.77-1.08l-7.28-1.72a1.39,1.39,0,0,0-1.55.54l-.27.57C303.37,108.2,303.71,108.69,304.35,108.84Z"/><path class="cls-7" d="M322.63,123.18c-.57-1.43-2.91-2.05-5.23,0s-5.31,2.58-5.06,4.1c.5,3,4,2.69,6.89,1.53S323.2,124.61,322.63,123.18Z"/><path class="cls-7" d="M259.84,124.71c.42-1.48,2.68-2.35,5.2-.54s5.56,2,5.47,3.54c-.18,3.08-3.7,3.1-6.68,2.25S259.42,126.19,259.84,124.71Z"/><path class="cls-8" d="M283.94,137.34h14.72a0,0,0,0,1,0,0V139a7.36,7.36,0,0,1-7.36,7.36h0a7.36,7.36,0,0,1-7.36-7.36v-1.61A0,0,0,0,1,283.94,137.34Z" transform="translate(-6.52 14.26) rotate(-2.77)"/><path class="cls-9" d="M284.42,137.34H298a0,0,0,0,1,0,0v0a2.9,2.9,0,0,1-2.9,2.9h-7.79a2.9,2.9,0,0,1-2.9-2.9v0A0,0,0,0,1,284.42,137.34Z" transform="translate(-6.37 14.25) rotate(-2.77)"/><path class="cls-7" d="M291.12,128.95a6,6,0,0,1-4.36-1.63c.26,1.5,2.1,2.67,4.36,2.67s4.1-1.17,4.36-2.67A6,6,0,0,1,291.12,128.95Z"/><path class="cls-2" d="M250,112.39a48.74,48.74,0,0,1,8.1-12.69c7.14-8.39,15.18-17.93,15.18-17.93s12.06,15.29,58.07,30.58V81.1L285.78,62.26l-32,14.31-7.31,12.64Z"/><circle class="cls-5" cx="163.31" cy="125.38" r="8.98"/><circle class="cls-5" cx="83.44" cy="126.23" r="8.98"/><circle class="cls-5" cx="123.37" cy="117.25" r="40.93"/><path class="cls-5" d="M116.18,154.13h14.4a0,0,0,0,1,0,0v13.24a7.2,7.2,0,0,1-7.2,7.2h0a7.2,7.2,0,0,1-7.2-7.2V154.13a0,0,0,0,1,0,0Z"/><ellipse class="cls-6" cx="107.03" cy="116.66" rx="2.56" ry="3.98" transform="translate(-11.31 11.49) rotate(-5.84)"/><rect class="cls-6" x="102.43" y="103.18" width="7.69" height="3.04" rx="1.12" ry="1.12" transform="translate(-10.1 11.35) rotate(-5.84)"/><path class="cls-8" d="M114.46,137.25h17.82a0,0,0,0,1,0,0v.87a5.09,5.09,0,0,1-5.09,5.09h-7.64a5.09,5.09,0,0,1-5.09-5.09v-.87a0,0,0,0,1,0,0Z"/><path class="cls-9" d="M117.13,137.25h12.93a0,0,0,0,1,0,0v0a2.1,2.1,0,0,1-2.1,2.1h-8.72a2.1,2.1,0,0,1-2.1-2.1v0A0,0,0,0,1,117.13,137.25Z"/><path class="cls-7" d="M95.17,125.52c.43-1.47,2.23-1.37,5.2-.49s5.87,2.11,5.44,3.59-3.73,3.06-6.71,2.19S94.74,127,95.17,125.52Z"/><ellipse class="cls-6" cx="139.8" cy="117.32" rx="3.98" ry="2.56" transform="translate(-8.84 223.22) rotate(-75.47)"/><rect class="cls-6" x="138.08" y="103.87" width="7.69" height="3.04" rx="1.12" ry="1.12" transform="translate(263.71 233.52) rotate(-170.14)"/><path class="cls-7" d="M150.48,126.65c-.33-1.5-2.12-1.52-5.16-.85s-6,1.7-5.67,3.2,3.5,3.32,6.54,2.65S150.81,128.15,150.48,126.65Z"/><path class="cls-2" d="M186.54,66.66c-34.21-40.82-71-8.75-71-8.75l3-12C98.46,52.35,93.73,67.8,93.73,67.8a9.43,9.43,0,0,0-5.58-1.07c-7.95,1-12.93,13-11.12,26.69,1,7.28,2.43,18.64,5.44,24.83,0-.34,0-.67,0-1a41.24,41.24,0,0,1,.41-5.77c1.35-3.7,4.44-10.41,10.2-14.73,8.3-6.22,8.14-13.57,8.14-13.57S126.46,105.39,152,89c.43,0,1.5.71,2.88,2.17a40.77,40.77,0,0,1,9.39,26.09c0,.49,0,1,0,1.45a155.8,155.8,0,0,0,5.37-18.08C172,91.15,171,82.15,167.36,77,173.57,69.3,186.54,66.66,186.54,66.66Z"/><rect class="cls-10" x="121.57" y="120.24" width="4.97" height="9.5" rx="1.81" ry="1.81"/></g><g id="laptops"><path class="cls-11" d="M319,240.3H279.67a1.51,1.51,0,0,1-1.56,1.27H246.26a1.51,1.51,0,0,1-1.56-1.27H205.39a3.75,3.75,0,0,0-.06.51v1.51c0,2.51,2.3,4.54,5.15,4.54h103.4c2.84,0,5.15-2,5.15-4.54v-1.51A3.11,3.11,0,0,0,319,240.3Z"/><path class="cls-12" d="M300.13,243.3H224.06a10.54,10.54,0,0,1-10.54-10.54l-1.72-44.46a10.54,10.54,0,0,1,10.54-10.54h79.49a10.54,10.54,0,0,1,10.54,10.54l-1.72,44.46A10.54,10.54,0,0,1,300.13,243.3Z"/><path class="cls-13" d="M307.81,179.61c-.16.72-.33,1.45-.54,2.18-8.27,29-27.15,55.9-59,61.51h51.85a10.54,10.54,0,0,0,10.54-10.54l1.72-44.46A10.53,10.53,0,0,0,307.81,179.61Z"/><circle class="cls-14" cx="262.17" cy="212.28" r="4.29"/><path class="cls-11" d="M190,239.94H150.67a1.51,1.51,0,0,1-1.56,1.27H117.26a1.51,1.51,0,0,1-1.56-1.27H76.38a3.75,3.75,0,0,0-.06.51V242c0,2.51,2.3,4.54,5.15,4.54h103.4c2.84,0,5.15-2,5.15-4.54v-1.51A3.11,3.11,0,0,0,190,239.94Z"/><path class="cls-12" d="M171.12,242.94H95.06a10.54,10.54,0,0,1-10.54-10.54L82.8,187.94a10.54,10.54,0,0,1,10.54-10.54h79.49a10.54,10.54,0,0,1,10.54,10.54l-1.72,44.46A10.54,10.54,0,0,1,171.12,242.94Z"/><path class="cls-13" d="M178.8,179.25c-.16.72-.33,1.45-.54,2.18-8.27,29-27.15,55.9-59,61.51h51.85a10.54,10.54,0,0,0,10.54-10.54l1.72-44.46A10.53,10.53,0,0,0,178.8,179.25Z"/><circle class="cls-14" cx="133.17" cy="211.92" r="4.29"/></g><g id="table"><rect class="cls-2" x="24.44" y="246.4" width="365" height="11" rx="5.5" ry="5.5"/></g></svg>