<svg id="Слой_1" data-name="Слой 1" xmlns="http://www.w3.org/2000/svg" xmlns:xlink="http://www.w3.org/1999/xlink" viewBox="0 0 510.67 395.67"><defs><style>.cls-1{fill:none;}.cls-2{fill:#aadfe8;}.cls-3{fill:#2a445f;}.cls-4{fill:#2fb4d3;}.cls-5{fill:#007ea6;}.cls-6{fill:#035b70;}.cls-7{fill:#fff;}.cls-8{fill:#f5f9fa;}.cls-9{clip-path:url(#clip-path);}.cls-10{opacity:0.5;}.cls-11{fill:#bc8ecc;}.cls-12{fill:#76cee5;}.cls-13{fill:#1f87ad;}.cls-14{fill:#f7d203;}.cls-15{fill:#fe6161;}.cls-16{fill:#40aacf;}</style><clipPath id="clip-path"><path class="cls-1" d="M385.9,88.73h-257a25.52,25.52,0,0,0-25,25.79V285.06H411.42V114.52A25.76,25.76,0,0,0,385.9,88.73Z"/></clipPath></defs><title>main_picture_fonders_details</title><path class="cls-2" d="M493.28,124.9C509.65,72.78,464.06,13.79,365.59,10.11c-89.82-3.36-83.94,64.74-174.38,70C114.08,84.69,83.68,65,38.33,151.29-3.51,231,68.59,307.46,114.08,336.76,175,376,236.39,389.28,325,386,541,378,463.67,219.16,493.28,124.9Z"/><ellipse class="cls-3" cx="293.93" cy="132.25" rx="4.3" ry="6.93"/><path class="cls-4" d="M391.45,63.92H123.39A41.61,41.61,0,0,0,81.9,105.41V291.5c0,22.9,18.6,34.27,41.49,34.33h268c22.9,0,41.43-11.43,41.49-34.33V105.44A41.61,41.61,0,0,0,391.45,63.92Z"/><circle class="cls-5" cx="257.42" cy="75.32" r="3.37"/><circle class="cls-6" cx="257.43" cy="75.29" r="2.18" transform="translate(86.77 282.21) rotate(-66.79)"/><path class="cls-7" d="M385.9,88.73h-257a25.52,25.52,0,0,0-25,25.79v167H411.42v-167A25.76,25.76,0,0,0,385.9,88.73Z"/><rect class="cls-8" x="103.75" y="85.02" width="307.31" height="196.48" rx="25.79" ry="25.79"/><g class="cls-9"><g class="cls-10"><path class="cls-2" d="M428.83,256.67c0,44.24-74.81,80.12-167.16,80.12S94.5,301,94.5,256.67s87.49-32.3,167.16-80.12C358.14,118.58,428.83,212.4,428.83,256.67Z"/></g></g><circle class="cls-11" cx="164.29" cy="103.89" r="3.91"/><circle class="cls-11" cx="146.41" cy="103.89" r="3.91"/><circle class="cls-11" cx="128.5" cy="103.89" r="3.91"/><rect class="cls-12" x="103.75" y="283.29" width="307.31" height="1.79"/><path class="cls-13" d="M455.24,299.71H318.41a5.49,5.49,0,0,1-5.43,5H202.11a5.49,5.49,0,0,1-5.43-5H59.81a16.66,16.66,0,0,0-.21,2v6a17.91,17.91,0,0,0,17.91,17.91H437.45a17.91,17.91,0,0,0,17.91-17.91v-6A13.85,13.85,0,0,0,455.24,299.71Z"/><path class="cls-6" d="M77.6,325.68H437.45a17.91,17.91,0,0,0,16.18-10.15H61.42A17.91,17.91,0,0,0,77.6,325.68Z"/><path class="cls-7" d="M132.44,167.08v88.74a5.16,5.16,0,0,0,4.31,5.69h111.1a5.16,5.16,0,0,0,4.31-5.69V167.08a5.16,5.16,0,0,0-4.31-5.69h-111A5.16,5.16,0,0,0,132.44,167.08Z"/><path class="cls-7" d="M263.78,166.55v56.56c-0.32,1.91,1.58,4.65,4.31,5h111.1c2.73-.3,4.64-3,4.31-5V166.55c0.32-1.91-1.58-4.65-4.31-5h-111C265.4,161.88,263.46,164.63,263.78,166.55Z"/><rect class="cls-13" x="180.85" y="184.17" width="27.33" height="8.02"/><rect class="cls-2" x="180.85" y="201.31" width="57.18" height="7.48"/><rect class="cls-2" x="180.52" y="215.16" width="65.79" height="7.48"/><rect class="cls-2" x="180.52" y="229.01" width="43.91" height="7.48"/><rect class="cls-14" x="142" y="183.63" width="32.35" height="53.25" rx="4.08" ry="4.08"/><rect class="cls-14" x="263.74" y="238.73" width="21.53" height="21.78" rx="1.17" ry="1.17"/><rect class="cls-13" x="296.5" y="238.73" width="21.53" height="21.78" rx="1.17" ry="1.17"/><rect class="cls-15" x="329.26" y="238.73" width="21.53" height="21.78" rx="1.17" ry="1.17"/><rect class="cls-2" x="362.02" y="239.38" width="21.53" height="21.78" rx="1.17" ry="1.17"/><path class="cls-2" d="M136.22,129.89H380.55a3.92,3.92,0,0,1,3.78,4.05v9.3a3.92,3.92,0,0,1-3.78,4.05H136.22a3.92,3.92,0,0,1-3.78-4.05v-9.3A3.92,3.92,0,0,1,136.22,129.89Z"/><circle class="cls-15" cx="416.05" cy="85.02" r="42.68"/><path class="cls-7" d="M406.55,102.82c-0.11,1.82.32,3,1.68,3.45a2.53,2.53,0,0,0,3.36-1.54c1-2.28,1.81-4.65,2.68-7,3.61-9.68,7.19-19.37,10.82-29,0.74-2,1.25-4-1.18-4.88s-3.35,1.12-4.08,3l-0.13.32q-6.19,16.6-12.37,33.2C407,101.27,406.73,102.26,406.55,102.82ZM438.09,85a3.9,3.9,0,0,1-1.51,2.18c-2.14,2.18-4.33,4.32-6.46,6.52-1.32,1.36-1.88,3.08-.53,4.56s3.11,0.76,4.43-.54c3.7-3.66,7.37-7.37,11.07-11,1-1,1.49-2,.27-3.16-4-3.89-7.84-7.86-11.84-11.7-1.23-1.18-2.82-1.67-4.22-.2s-0.89,2.89.38,4.18c2.31,2.33,4.64,4.65,6.95,7A3.7,3.7,0,0,1,438.09,85ZM403.5,73.48A2.6,2.6,0,0,0,402,71a2.78,2.78,0,0,0-3.37.85c-3.94,3.92-7.86,7.86-11.81,11.77-1,1-1.16,1.82-.09,2.87,3.8,3.74,7.54,7.54,11.37,11.25,1.31,1.27,3,2,4.52.45s0.69-3.1-.61-4.42c-2.31-2.34-4.61-4.7-7-7-1.25-1.2-1.29-2.2,0-3.42,2.29-2.19,4.5-4.48,6.74-6.73C402.64,75.76,403.55,74.89,403.5,73.48Z"/><path class="cls-16" d="M322.78,194.61a1.38,1.38,0,0,1,0-1.59l6-7.62a0.73,0.73,0,0,1,1.22,0l15.54,20.67c0.33,0.44.15,0.79-.4,0.79l-39-.38c-0.55,0-.72-0.37-0.39-0.8l9.73-12.47a0.75,0.75,0,0,1,1.24,0l7.36,9.22a1,1,0,0,0,1.4.19h0l1.33-1a1,1,0,0,0,.2-1.4Z"/></svg>