<svg id="Слой_1" data-name="Слой 1" xmlns="http://www.w3.org/2000/svg" viewBox="0 0 510.67 395.67"><defs><style>.cls-1{fill:#aadfe8;}.cls-2{fill:#39c1d8;}.cls-3{fill:#31a8b5;}.cls-4{fill:#007ea6;}.cls-5{fill:#035b70;}.cls-6{fill:#f5f9fa;}.cls-7{fill:#daeeef;}.cls-8{fill:#83d7ea;opacity:0.6;}.cls-14,.cls-8{isolation:isolate;}.cls-9{fill:#bc8ecc;}.cls-10{fill:#76cee5;}.cls-11{fill:#bff2f7;}.cls-12{fill:#dcfdff;}.cls-13{fill:#f7d203;}.cls-14{fill:#d6b305;opacity:0.5;}.cls-15{fill:#d4b3e2;}.cls-16,.cls-18,.cls-19{fill:none;stroke-miterlimit:10;}.cls-16{stroke:#fff;stroke-linecap:round;stroke-width:5px;}.cls-17{fill:#fe6161;}.cls-18,.cls-19{stroke:#fcfcfc;}.cls-18{stroke-width:2px;}</style></defs><title>main_picture_fonders3-01</title><path class="cls-1" d="M408.51,34.67C345.82-9.33,205.13,10,124.91,57.33,81,83.22-8.67,183,30,262.67,71.91,349,124.91,309.4,196.18,313.93c83.58,5.31,78.15,73.41,161.15,70,91-3.68,107.33-61.39,118-114.79C482.71,232.26,487.66,90.21,408.51,34.67Z"/><rect class="cls-2" x="164.31" y="21.92" width="189.23" height="337.75" rx="27.56" ry="27.56"/><path class="cls-3" d="M164.31,332.11a27.64,27.64,0,0,0,27.56,27.56H326a27.64,27.64,0,0,0,27.56-27.56s-28.46,21.45-94.7,8.41C221.33,333.14,164.31,332.11,164.31,332.11Z"/><path class="cls-4" d="M274.44,45.82H242.87a2.14,2.14,0,0,1-1.81-2.37,2.14,2.14,0,0,1,1.81-2.37h31.57a2.14,2.14,0,0,1,1.81,2.37A2.14,2.14,0,0,1,274.44,45.82Z"/><path class="cls-5" d="M243,43.89a0.74,0.74,0,0,0,0-.44,0.8,0.8,0,0,1,.15-0.52L274.33,43a0.73,0.73,0,0,0,0,.44,1,1,0,0,1-.09.44H243Z"/><rect class="cls-6" x="172.03" y="60.49" width="173.78" height="248.34"/><path class="cls-7" d="M345.82,308.83H172V229.68s19.66,12.38,42.68-4.54c27.17-20,42.42-58.77,77.49-67.76,30.62-7.84,53.61,9.28,53.61,9.28V308.83h0Z"/><circle class="cls-6" cx="258.85" cy="333.14" r="10.55"/><circle class="cls-2" cx="258.85" cy="333.14" r="7.38"/><path class="cls-8" d="M258.49,335.64c-4.08,0-6.89-4.17-6.62-4.93a7.39,7.39,0,0,1,14,.15C266.1,331.57,262.57,335.64,258.49,335.64Z"/><circle class="cls-9" cx="224.15" cy="76.79" r="4.3"/><circle class="cls-9" cx="207.52" cy="76.79" r="4.3"/><circle class="cls-9" cx="190.9" cy="76.79" r="4.3"/><circle class="cls-4" cx="281.82" cy="43.45" r="2.36"/><circle class="cls-5" cx="281.82" cy="43.45" r="1.53"/><rect class="cls-10" x="172.03" y="307.44" width="173.78" height="2.77"/><path class="cls-6" d="M300.88,258c0,0.91-1.35,1.66-3,1.66H219c-1.65,0-3-.75-3-1.66s1.35-1.66,3-1.66h78.84C299.53,256.31,300.88,257.06,300.88,258Z"/><path class="cls-6" d="M282.88,268.1c0,0.91-1.35,1.66-3,1.66H237c-1.65,0-3-.75-3-1.66s1.35-1.66,3-1.66h42.83C281.52,266.43,282.88,267.18,282.88,268.1Z"/><circle class="cls-1" cx="258.46" cy="171.42" r="64.09"/><path class="cls-4" d="M282.18,210.29a33.17,33.17,0,0,1-7.49-4,8.05,8.05,0,0,1-3.53-7.08V197a15.48,15.48,0,0,1,.24-4.36,27.8,27.8,0,0,0,6.34-12.86l0.18-.3c1.72-.88,3-3.07,3.33-5.76a7.39,7.39,0,0,0,0-2.62,8.82,8.82,0,0,0-1.65-4.32,7.8,7.8,0,0,1,.4-2c1.31-5.46,2.36-10.91,1.41-16.57-1-5.87-3.82-10.08-9.83-11.66a3.06,3.06,0,0,1-1.33-.53c-5.76-5.6-12.71-4.6-19.45-3.1-9.22,2.06-14.11,8.87-14.44,19.09a51.55,51.55,0,0,0,1.56,13.23,4.3,4.3,0,0,1,.09,1.47,9.24,9.24,0,0,0-1.81,5.72c0,3.37,1.51,6.23,3.6,7.17A27.66,27.66,0,0,0,246.5,193a4.66,4.66,0,0,1,0,.57,42.36,42.36,0,0,0,0,4.86c0.45,4.34-1.82,7-5.27,9a85.87,85.87,0,0,1-11.32,5c-2.35,1-10.57,3.82-15.1,5.84a64,64,0,0,0,87.83-.59C296.88,215.18,286,211.87,282.18,210.29Z"/><path class="cls-11" d="M262.19,215.26a1.31,1.31,0,0,1-1.25,1.07H256.6a1.31,1.31,0,0,1-1.25-1.07l-0.76-5a0.91,0.91,0,0,1,.74-1.06H262a0.91,0.91,0,0,1,.92,1.07Z"/><path class="cls-12" d="M258.46,211.58a8.74,8.74,0,0,1-3.87-1.35,0.91,0.91,0,0,1,.74-1.06H262a0.91,0.91,0,0,1,.92,1.07A7.49,7.49,0,0,1,258.46,211.58Z"/><path class="cls-11" d="M265.63,235.09L262,217.7h-6.51l-3,17.52c2,0.18,4,.28,6,0.28A64.56,64.56,0,0,0,265.63,235.09Z"/><path class="cls-5" d="M281.39,148.22c-1-5.87-3.82-10.08-9.83-11.66a3.06,3.06,0,0,1-1.33-.53c-5.76-5.6-12.71-4.6-19.45-3.1-9.22,2.06-14.11,8.87-14.44,19.09a51.55,51.55,0,0,0,1.56,13.23,44.83,44.83,0,0,1,10.25-8.32c0,4.82.38,8.95,1.53,7.06,4.49-7.37,11.88-11.84,13.09-12.55a37,37,0,0,1,4.81-.47c4.54-.14,12.41,13.82,12.41,13.82C281.29,159.34,282.34,153.88,281.39,148.22Z"/><path class="cls-13" d="M460.92,219c0,6.55-6,11.91-13.24,11.91H353.57c-7.28,0-13.24-5.36-13.24-11.91V176.58l-27.77-14.29H447.69c7.28,0,13.24,5.36,13.24,11.91V219h0Z"/><path class="cls-14" d="M340.33,204.55V219c0,6.55,6,11.91,13.24,11.91h94.12c7.28,0,13.24-5.36,13.24-11.91V202.23s-19-29.5-62.67-6.83C373.09,208.48,340.33,204.55,340.33,204.55Z"/><path class="cls-6" d="M442.4,182.19a3,3,0,0,1-3,3H360.56a3,3,0,0,1,0-6H439.4A3,3,0,0,1,442.4,182.19Z"/><path class="cls-6" d="M442.4,196.82a3,3,0,0,1-3,3H360.56a3,3,0,0,1,0-6H439.4A3,3,0,0,1,442.4,196.82Z"/><path class="cls-6" d="M423,211.46a3,3,0,0,1-3,3H360.56a3,3,0,0,1,0-6H420A3,3,0,0,1,423,211.46Z"/><path class="cls-9" d="M93.43,281.79c0,4.72,4.92,8.58,10.94,8.58h77.78c6,0,10.94-3.86,10.94-8.58V251.18L216,240.89H104.37c-6,0-10.94,3.86-10.94,8.58v32.32Z"/><path class="cls-15" d="M176.67,240.89H98.88c-6,0-10.94,3.86-10.94,8.58v32.32c0,4.72,4.92,8.58,10.94,8.58l88.72-39.19,22.95-10.3H176.67Z"/><path class="cls-6" d="M103.25,259.63a2.78,2.78,0,0,0,3,2.46h64.11a2.51,2.51,0,1,0,0-4.92H106.25A2.78,2.78,0,0,0,103.25,259.63Z"/><path class="cls-6" d="M103.25,271.73a2.78,2.78,0,0,0,3,2.46h50.67a2.51,2.51,0,1,0,0-4.92H106.25A2.78,2.78,0,0,0,103.25,271.73Z"/><path class="cls-16" d="M368.58,76.35a15.33,15.33,0,0,1,0,21.68h0"/><path class="cls-16" d="M379.5,70.44a23,23,0,0,1,1,32.51l-0.47.49"/><path class="cls-16" d="M392.45,64.19a34.5,34.5,0,0,1,0,46"/><path class="cls-16" d="M405.42,56.51a51.77,51.77,0,0,1-.31,61.78"/><path class="cls-16" d="M149.49,76.35a15.33,15.33,0,0,0,0,21.68h0"/><path class="cls-16" d="M138.58,70.44a23,23,0,0,0-1,32.51l0.47,0.49"/><path class="cls-16" d="M125.62,64.19a34.5,34.5,0,0,0,0,46"/><path class="cls-16" d="M112.66,56.51A51.77,51.77,0,0,0,113,118.3"/><circle class="cls-17" cx="302.5" cy="226.6" r="22.46"/><path class="cls-18" d="M311,226.66a15.22,15.22,0,0,1-.39-2.59c-0.38-5.1-3.62-9.26-8.09-9.26s-7.83,4.15-8.09,9.26a14.5,14.5,0,0,1-.39,2.59,66.39,66.39,0,0,1-3.11,6.67H314.1A72.61,72.61,0,0,1,311,226.66Z"/><path class="cls-19" d="M300.14,238a2.36,2.36,0,0,0,4.72,0h-4.72Z"/></svg>