<svg id="Слой_1" data-name="Слой 1" xmlns="http://www.w3.org/2000/svg" viewBox="0 0 413.22 384"><defs><style>.cls-1,.cls-16{fill:#2fb4d3;}.cls-2{fill:#328ca5;}.cls-3{fill:#2c7c84;}.cls-13,.cls-3,.cls-8{opacity:0.6;}.cls-11,.cls-12,.cls-13,.cls-16,.cls-3,.cls-8{isolation:isolate;}.cls-4{fill:#39c1d8;}.cls-5{fill:#88e9ff;}.cls-6{fill:#007ea6;}.cls-7{fill:#f5f9fa;}.cls-10,.cls-12,.cls-8{fill:#76cee5;}.cls-9{fill:#e8f7f9;}.cls-11{fill:#fff;opacity:0.9;}.cls-12,.cls-16{opacity:0.5;}.cls-13,.cls-14{fill:none;stroke-linecap:round;stroke-miterlimit:10;}.cls-13{stroke:#76cee5;stroke-width:2px;}.cls-14{stroke:#2fb4d3;stroke-width:3px;}.cls-15{fill:#f44063;}.cls-17{fill:#f2d73d;}.cls-18{fill:#a1e298;}</style></defs><title>monitor_mob2</title><g id="Layer_2" data-name="Layer 2"><path class="cls-1" d="M237.31,271c-.62,11.12.62,34.15,20,40.82H154.7c20.27-4.62,21.43-26.68,20.45-38.77"/><path class="cls-2" d="M236.78,272.72l-62.16.44a111.36,111.36,0,0,1-.09,12.18s10.85,6.67,33.17-.18c20.36-6.22,29.7.18,29.7.18A55,55,0,0,1,236.78,272.72Z"/><path class="cls-3" d="M212.5,277.88c16.45,0,24.36,1.16,24.45.36a17.13,17.13,0,0,1,.09-2.13l-62.16.44c.09.89.09,1.51.18,2.22v1.6"/><path class="cls-4" d="M155.86,311.49H256.07a3.57,3.57,0,0,1,3.56,3.56v.18a3.57,3.57,0,0,1-3.56,3.56H155.86a3.57,3.57,0,0,1-3.56-3.56v-.18A3.57,3.57,0,0,1,155.86,311.49Z"/><path class="cls-5" d="M217,313.63c-31.57,2.13-64.83.8-64.65.44a3.71,3.71,0,0,1,3.47-2.49h100a3.61,3.61,0,0,1,3.65,3.65h0C259.63,317.18,235.62,312.38,217,313.63Z"/><path class="cls-1" d="M386.88,60.29c-.09-21.34-19.21-38.77-42.77-38.77H67.91c-23.65,0-42.68,17.34-42.77,38.68V234c.09,21.34,19.21,38.68,42.77,38.77h276.2c23.56-.09,42.68-17.34,42.77-38.77"/><circle class="cls-6" cx="205.74" cy="30.94" r="2.85"/><circle class="cls-7" cx="206.01" cy="248.18" r="8"/><circle class="cls-1" cx="206.01" cy="248.18" r="5.6"/><path class="cls-8" d="M205.65,250.14c-3,0-5.25-3.11-5-3.73a5.67,5.67,0,0,1,7-3.65,5.49,5.49,0,0,1,3.65,3.73C211.52,247,208.77,250.14,205.65,250.14Z"/><path class="cls-9" d="M371.76,65.26c-.09-14-12.45-25.34-27.48-25.34h-279C50.3,39.92,38,51.3,38,65.26V229.51H371.76"/><rect class="cls-10" x="37.77" y="227.82" width="334.08" height="2.85"/></g><rect class="cls-11" x="56" y="65.18" width="70.43" height="143.61"/><rect class="cls-12" x="60.8" y="81.45" width="61.71" height="9.07"/><line class="cls-13" x1="65.69" y1="105.55" x2="81.87" y2="105.55"/><line class="cls-13" x1="65.69" y1="111.77" x2="97.26" y2="111.77"/><line class="cls-13" x1="65.69" y1="118.35" x2="107.84" y2="118.35"/><line class="cls-13" x1="65.69" y1="125.91" x2="86.05" y2="125.91"/><line class="cls-13" x1="65.69" y1="132.31" x2="81.87" y2="132.31"/><line class="cls-13" x1="65.69" y1="139.07" x2="94.32" y2="139.07"/><line class="cls-13" x1="65.69" y1="146.19" x2="86.05" y2="146.19"/><line class="cls-13" x1="65.69" y1="165.04" x2="88.27" y2="165.04"/><line class="cls-13" x1="65.69" y1="172.6" x2="76.63" y2="172.6"/><line class="cls-13" x1="65.69" y1="178.64" x2="93.17" y2="178.64"/><line class="cls-13" x1="65.69" y1="185.76" x2="89.43" y2="185.76"/><line class="cls-13" x1="65.69" y1="192.96" x2="103.75" y2="192.96"/><line class="cls-14" x1="61.33" y1="97.63" x2="74.14" y2="97.63"/><line class="cls-14" x1="61.33" y1="157.48" x2="86.94" y2="157.48"/><rect class="cls-11" x="139.94" y="165.48" width="215.37" height="43.04"/><path class="cls-15" d="M151.05,172.6h9.07a3.28,3.28,0,0,1,3.29,3.29V185a3.28,3.28,0,0,1-3.29,3.29h-9.07a3.28,3.28,0,0,1-3.29-3.29v-9.07A3.28,3.28,0,0,1,151.05,172.6Z"/><line class="cls-14" x1="173.73" y1="174.55" x2="213.21" y2="174.55"/><line class="cls-13" x1="173.73" y1="180.6" x2="335.3" y2="180.6"/><line class="cls-13" x1="173.73" y1="186.91" x2="249.4" y2="186.91"/><line class="cls-14" x1="173.73" y1="195.36" x2="200.85" y2="195.36"/><path class="cls-16" d="M316.9,195.36h25.52a1.78,1.78,0,0,1,1.78,1.78v5a1.78,1.78,0,0,1-1.78,1.78H316.9a1.78,1.78,0,0,1-1.78-1.78v-5A1.78,1.78,0,0,1,316.9,195.36Z"/><rect class="cls-11" x="139.94" y="115.6" width="215.37" height="43.04"/><path class="cls-17" d="M151.05,122.71h9.07a3.28,3.28,0,0,1,3.29,3.29v9.07a3.28,3.28,0,0,1-3.29,3.29h-9.07a3.28,3.28,0,0,1-3.29-3.29V126A3.28,3.28,0,0,1,151.05,122.71Z"/><line class="cls-14" x1="173.73" y1="124.67" x2="213.21" y2="124.67"/><line class="cls-13" x1="173.73" y1="130.8" x2="315.92" y2="130.8"/><line class="cls-13" x1="173.73" y1="137.03" x2="292.62" y2="137.03"/><line class="cls-14" x1="173.73" y1="145.47" x2="200.85" y2="145.47"/><path class="cls-16" d="M316.9,145.47h25.52a1.78,1.78,0,0,1,1.78,1.78v5a1.78,1.78,0,0,1-1.78,1.78H316.9a1.78,1.78,0,0,1-1.78-1.78v-5A1.78,1.78,0,0,1,316.9,145.47Z"/><rect class="cls-11" x="139.94" y="65.26" width="215.37" height="43.04"/><path class="cls-18" d="M151.05,72.47h9.07a3.28,3.28,0,0,1,3.29,3.29v9.07a3.28,3.28,0,0,1-3.29,3.29h-9.07a3.28,3.28,0,0,1-3.29-3.29V75.76A3.23,3.23,0,0,1,151.05,72.47Z"/><line class="cls-14" x1="173.73" y1="74.34" x2="213.21" y2="74.34"/><line class="cls-13" x1="173.73" y1="80.47" x2="320.63" y2="80.47"/><line class="cls-13" x1="173.73" y1="86.78" x2="265.23" y2="86.78"/><line class="cls-14" x1="173.73" y1="95.14" x2="200.85" y2="95.14"/><path class="cls-16" d="M316.9,95.23h25.52A1.78,1.78,0,0,1,344.2,97v5a1.78,1.78,0,0,1-1.78,1.78H316.9a1.78,1.78,0,0,1-1.78-1.78V97A1.78,1.78,0,0,1,316.9,95.23Z"/><line class="cls-14" x1="61.69" y1="74.07" x2="88.81" y2="74.07"/></svg>