<?xml version="1.0" encoding="utf-8"?>
<!-- Generator: Adobe Illustrator 19.1.0, SVG Export Plug-In . SVG Version: 6.00 Build 0)  -->
<svg version="1.1" id="Capa_1" xmlns="http://www.w3.org/2000/svg" xmlns:xlink="http://www.w3.org/1999/xlink" x="0px" y="0px"
	 viewBox="244 -107.7 648.2 289.7" style="enable-background:new 244 -107.7 648.2 289.7;" xml:space="preserve">
<style type="text/css">
	.st0{fill:#4B586E;}
	.st1{fill:#D7E1E9;}
	.st2{opacity:0.8;}
	.st3{fill:#C1CED3;}
	.st4{fill:#7889A0;}
	.st5{opacity:0.8;fill:#C1CED3;enable-background:new    ;}
	.st6{fill:#F58B76;}
	.st7{fill:#EC8371;}
	.st8{fill:#FFFFFF;}
	.st9{fill:#F7D210;}
	.st10{fill:#F2C714;}
	.st11{fill:#B98EC0;}
	.st12{fill:#AC8AB5;}
	.st13{fill:#79C363;}
	.st14{fill:#79B762;}
	.st15{fill:#66BE68;}
</style>
<g>
	<g>
		<g>
			<path class="st0" d="M264.1,40.3c0,0,2.8-2.6,8.1,2.1l2.5-3.8C274.7,38.5,268.8,33.8,264.1,40.3z"/>
			<path class="st0" d="M273.9,29c0,0-3.3,4.1,1.5,8.8l-3.2,3.2C272.1,41.1,264.8,32,273.9,29z"/>
		</g>
		<path class="st1" d="M260.3,139.6c5.8-9,14.9-11.4,14.9-11.4l21.8-8.1h20.8l21.8,8.1c0,0,9.1,2.4,14.9,11.4H260.3z"/>
		<path class="st1" d="M335.8,182h33.7c0-5.8-0.4-13.9-0.4-13.9c-2-34.4-27.1-39.8-27.1-39.8c-19.6-4.7-8.9,25.5-8.9,25.5
			C332.7,161,333.7,170.8,335.8,182z"/>
		<g>
			<rect x="293.1" y="99.7" class="st1" width="28.6" height="27.8"/>
		</g>
		<g class="st2">
			<path class="st3" d="M321.7,112.6V99.7h-28.6v6.4C301.3,112.9,311.1,113.8,321.7,112.6z"/>
		</g>
		<path class="st4" d="M352.1,182c0.5-15,0.4-19.1,0.2-24.3c-0.3-11.4-2.7-21-10.3-29.5l0,0l-20.4-6.6c0,0,4.3,7.5-14.4,7.5
			c0,0-12.3-0.5-14.1-7.5l-20.7,6.6c0,0-17.7,4.3-20.7,23l10.4,19.1l-0.4,11.7L352.1,182L352.1,182z"/>
		<g>
			<path class="st0" d="M343.9,64.9c0.8-6.4-0.6-12.5-0.5-18.9c0-4.2-0.8-10.6-6-11.2c-7.3-0.7-9.5,11.9-10,17.3
				c-0.6,7.5,1.3,15.7,2.7,23c0.5,2.7,0.5,8,3.5,9.3c2.6,1.1,5.2-1.5,6.5-3.4C343.2,76.4,343.2,70.3,343.9,64.9z"/>
			<path class="st1" d="M338.5,95.8c-2.9,11.3-8,14.4-8,14.4l-6.8,1.3c-3.9-0.5-10.7-2.1-10.7-2.1c-15.6-5.3-20.1-6.7-22.5-12.6
				c-0.1-0.3-12.3-42.5-12.3-42.5c-2-21.8,20.8-26.3,24.2-26.8c3.4-0.8,25.1-6.8,31.5,14.1C333.9,41.5,343.4,65.7,338.5,95.8z"/>
			<path class="st0" d="M345.7,20.5c1.2,6.8,0.1,16.1-5.2,20.4c-5.7,4.7-10.6,3.4-17.4,4.9c-7.1,1.6-14.4,2.2-21.5,3.6
				c-5,1-10.8,1.5-13.1,6.8c-3,7-3.6,16.2-1.6,23c1.7,5.7,2.2,11.2,4.1,18.6c-6.5-5.3-11.5-13.1-11.5-13.1
				c-3.2-5.7-3.2-5.7-6.9-15.5c-2.1-5.8-4-10.9-4.2-16.8c-0.4-7.7,3.4-11,7.5-18.1c3.9-6.6,9.3-11.2,16.3-13.3c0,0,35.7,2,35.1-6.2
				c0,0,8.6,2.2,7,7.9c0,0,9-1.6,7.1-7.9C341.3,14.9,344.9,16.6,345.7,20.5z"/>
			<path class="st1" d="M288.3,77.8c0,0-3.9-8.4-9.9-3.4c0,0-2.8,2.1,0.6,7.8c0,0,4.9,8.1,10.8,3.6L288.3,77.8z"/>
			<path class="st0" d="M287.7,58.2c0,0,0,15,2.8,23l-2.9,0.6c0,0-1.5-10.3-6.8-10.4L287.7,58.2z"/>
		</g>
		<path class="st1" d="M280.6,182h-31.5c0,0,0.1-7.5,0.1-8c0.2-7.3,0.7-14.7,2-22c1.9-10.4,6.9-19.5,18-22.2c5.1-1.2,9.6,1.9,12.3,6
			C281.6,135.9,286.6,142.1,280.6,182z"/>
	</g>
	<g>
		<path class="st0" d="M641.1,117.7c5.2-1.9,8.5-6.2,14.6-5.7c11,1,18.7,13.3,29.3,4.9c12.8-10.1,9.4-71,3.9-84.7
			c-4.7-11.7-13.3-0.3-25.7-4.2c-14.3-4.6-26.7,6.7-34.1,18.5c-7.7,12.2-11.7,27.8-10.5,42.2C619.6,101.9,622,124.6,641.1,117.7z"/>
		<path class="st1" d="M697.8,137.5c-5.5-8.5-14.2-10.8-14.2-10.8l-20.7-7.7h-19.8l-25.3,7.7c0,0-8.7,2.3-14.2,10.8H697.8z"/>
		<g>
			<path class="st4" d="M692.7,182H611l0.5-15.3l-12-18.2c2.7-17.7,18.2-21.8,18.2-21.8l19.9-6c0,0-1.1,6.8,15.4,6.8
				c0,0,13.2,0,14.8-6.7l15.8,5.9c0,0,11.6,3.5,17.9,15.2l-8.8,24.7L692.7,182L692.7,182z"/>
		</g>
		<path class="st1" d="M685.6,182l-3.6-14.6c0,0-3.9-29.5,16.3-29.9c0,0,12.1,8.8,11.1,44.5H685.6"/>
		<g>
			<path class="st1" d="M592.2,182h26.9l4.8-19.4c0,0,3.9-29.5-16.3-29.9c0,0-10.5,7.4-13.3,24.6C594.3,157.4,592,171.2,592.2,182z"
				/>
		</g>
		<g>
			<path class="st1" d="M660.8,126h-17.5c-1.4,0-2.6-1.2-2.6-2.6V90.6c0-0.3,0.3-0.6,0.6-0.6h23.4c0.3,0,0.6,0.3,0.6,0.6v30.9
				C665.3,124.1,663.3,126,660.8,126z"/>
		</g>
		<g class="st2">
			<path class="st3" d="M640.7,104.8V90.1h24.5v21.1C657.2,111,647.6,109.5,640.7,104.8z"/>
		</g>
		<path class="st1" d="M638.1,93c0.8,1.9,2,3.7,3.6,5.3c4.1,3.9,8.8,7.1,14.1,9.2c6.4,2.6,16.1,3,21.2-2.3
			c4.1-4.3,6.4-10.8,8.2-16.3c3.5-10.8,3.4-22.6,2.6-33.9c-0.2-2.6-0.5-5.1-0.9-7.7c-4-24.5-24.9-24.4-24.9-24.4
			c-15.8-0.7-30.3,6.8-32.7,23.5c-0.9,6.4,0.3,13.2,0.6,19.6c0.2,4.7,0.8,9.4,2.3,13.9C633.6,84.5,636.2,88.6,638.1,93z"/>
		<path class="st0" d="M689.4,69.5c5.9-18.3,1.1-39.8-5.9-46.6c-20-19.1-57-11.8-68.3,18c-3.5,9.2-1.9,43.6-0.3,54.2
			c2,13.7,7,23.2,17,23.8c0.6,0,1.1-0.4,1.1-1c-0.2-11.4,0.6-24-0.4-37.9c-1-14.2,0.9-14.5,12.6-21.1c5.9-3.3,9.3-6.7,12.9-12
			c4.5-6.6,1.1-8.9,10-8.6C668.1,38.4,688.9,37.7,689.4,69.5z"/>
		<path class="st1" d="M636,74.3c0,0-2.1-8.7-8.8-5.1c0,0-3,1.5-0.8,7.5c0,0,3.2,8.6,9.6,5.5V74.3z"/>
	</g>
	<g>
		<path class="st1" d="M877,139.6c-5.8-9-14.9-11.4-14.9-11.4l-21.8-8.1h-20.8l-21.8,8.1c0,0-9.1,2.4-14.9,11.4H877z"/>
		<path class="st1" d="M801.5,182h-33.7c0-5.8,0.4-13.9,0.4-13.9c2-34.4,27.1-39.8,27.1-39.8c19.6-4.7,8.9,25.5,8.9,25.5
			C804.7,161,803.6,170.8,801.5,182z"/>
		<g>
			<rect x="815.6" y="99.7" class="st1" width="28.6" height="27.8"/>
		</g>
		<g class="st2">
			<path class="st3" d="M815.6,112.6V99.7h28.6v6.4C836,112.9,826.2,113.8,815.6,112.6z"/>
		</g>
		<path class="st4" d="M785.2,182c-0.5-15-0.4-19.1-0.2-24.3c0.3-11.4,2.7-21,10.3-29.5l0,0l20.4-6.6c0,0-4.3,7.5,14.4,7.5
			c0,0,12.3-0.5,14.1-7.5l20.7,6.6c0,0,17.7,4.3,20.7,23l-10.4,19.1l0.4,11.7L785.2,182L785.2,182z"/>
		<g>
			<path class="st0" d="M795.9,58.2c0-6.6,0.3-13.2,0.1-19.8c-0.1-4.2-0.5-3.1,4.4-3.6c6.8-0.6,9,12,9.5,17.4
				c0.7,7.5-1,15.6-2.2,22.9c-0.5,2.6-0.3,8-3.1,9.2c-2.4,1.1-4.8-1.6-6.1-3.5c-2.9-4.5-2.4-11.3-2.5-16.3
				C795.9,62.4,795.9,60.3,795.9,58.2z"/>
			<path class="st1" d="M798.8,95.8c2.9,11.3,8,14.4,8,14.4l6.8,1.3c3.9-0.5,10.7-2.1,10.7-2.1c15.6-5.3,20.1-6.7,22.5-12.6
				c0.1-0.3,12.3-42.5,12.3-42.5c2-21.8-20.8-26.3-24.2-26.8c-3.4-0.8-25.1-6.8-31.5,14.1C803.4,41.5,793.9,65.7,798.8,95.8z"/>
			<path class="st0" d="M861.4,34.3c7.6,3.6,7.8,10.4,7.5,18.1c-0.3,6-2.1,11-4.2,16.8c-3.6,9.9-3.6,9.9-6.9,15.5
				c0,0-5,7.8-11.5,13.1c1.9-7.4,2.4-13,4.1-18.6c2.1-6.8,1.5-16-1.6-23c0,0-1.7-4.7-8.8-6s0,0,0,0L861.4,34.3"/>
			<path class="st1" d="M849,77.8c0,0,3.9-8.4,9.9-3.4c0,0,2.8,2.1-0.6,7.8c0,0-4.9,8.1-10.8,3.6L849,77.8z"/>
			<path class="st0" d="M849.6,58.2c0,0,0,15-2.8,23l2.9,0.6c0,0,1.5-10.3,6.8-10.4L849.6,58.2z"/>
			<path class="st0" d="M792.1,26.1c-24.3,24.8,49.3,24.5,49.3,24.5s7.7,3.6,20-16.3c0,0,3.3-15.5-31.5-20.4
				C829.9,13.9,806.9,11.1,792.1,26.1z"/>
		</g>
		<path class="st1" d="M856.7,182h31.5c0,0-0.1-7.5-0.1-8c-0.2-7.3-0.7-14.7-2-22c-1.9-10.4-6.9-19.5-18-22.2
			c-5.1-1.2-9.6,1.9-12.3,6C855.7,135.9,850.7,142.1,856.7,182z"/>
	</g>
	<g>
		<path class="st0" d="M458.8,20.5c0,0-26.3,7.9-23.8,49.5v89.7h29.9L458.8,20.5z"/>
		<path class="st0" d="M455.8,47.4v128.8h57.1V67.7c0,0,3.8-41.6-23.6-46.7C489.4,20.9,455.8,14.9,455.8,47.4z"/>
		<rect x="454.3" y="129.9" class="st1" width="39.7" height="19.7"/>
		<path class="st1" d="M537.9,182H511l-4.8-19.4c0,0-3.9-29.5,16.3-29.9c0,0,10.5,7.4,13.3,24.6C535.9,157.4,538.1,171.2,537.9,182z
			"/>
		<path class="st1" d="M444.6,182l3.6-14.6c0,0,6.4-32.7-13.8-33.1c0,0-14.6,12.1-13.6,47.7L444.6,182"/>
		<rect x="464.9" y="90.1" class="st1" width="24.5" height="35.9"/>
		<path class="st5" d="M489.4,104.8V90.1h-24.5v21.1C472.9,111,482.5,109.5,489.4,104.8z"/>
		<path class="st1" d="M432.3,137.5c5.5-8.5,14.2-10.8,14.2-10.8l20.7-7.7H487l25.3,7.7c0,0,8.7,2.3,14.2,10.8H432.3z"/>
		<path class="st4" d="M437.4,166.7V182H517l-0.9-17.8c-1-34.3,2.8-34.3,2.8-34.3c-3.6-2.4-6.6-3.2-6.6-3.2l-19.9-6.1
			c0,0-4.3,19-20.8,19c0,0-12.8-6.9-9.3-18.8l-15.8,5.8c0,0-6.2,1.6-12.1,7.7C434.4,134.3,437.2,136,437.4,166.7z"/>
		<path class="st1" d="M492.1,93c-0.8,1.9-2,3.7-3.6,5.3c-4.1,3.9-8.8,7.1-14.1,9.2c-6.4,2.6-16.1,3-21.2-2.3
			c-4.1-4.3-6.4-10.8-8.2-16.3c-3.5-10.8-3.4-22.6-2.6-33.9c0.2-2.6,0.5-5.1,0.9-7.7c4-24.5,24.9-24.4,24.9-24.4
			c15.8-0.7,30.3,6.8,32.7,23.5c0.9,6.4-0.3,13.2-0.6,19.6c-0.2,4.7-0.8,9.4-2.3,13.9C496.5,84.5,494,88.6,492.1,93z"/>
		<path class="st1" d="M494.1,74.3c0,0,2.1-8.7,8.8-5.1c0,0,3,1.5,0.8,7.5c0,0-3.2,8.6-9.6,5.5L494.1,74.3z"/>
		<path class="st0" d="M440.8,50.2c-1.1-33.6,30.8-32,30.8-32c31.4,1.3,32.9,15.5,32.9,15.5c3.8,18-1.6,35.5-1.6,35.5
			c-6.7-1.5-7.8,7.5-7.8,7.5c0.7-14.3-0.5-15.2-0.5-15.2c-10.2-0.1-17.5-1.2-17.5-1.2l-0.5-10l-2.5,9.4c0,0-14.4-0.3-29.4-3.9
			c0,0-4,0.3-4,12.4v-18C440.7,50.2,440.8,50.2,440.8,50.2z"/>
	</g>
	<g>
		<g>
			<path class="st6" d="M880.1-68.9c-1-6.5-3.7-12.8-8-18.3c-13.7-17.2-43.1-22.1-60.6-8.3c-18.8,14.8-32.2,49.3-9.9,65.2
				c2.5,1.8,5.4,3.3,8.4,4.6c-0.8,3.7-2.6,10-6.2,12.4c0,0,13.4,1,18.4-8.8c19.8,3.7,43.4-1.3,52.5-17.6
				C879.7-48.6,881.7-59,880.1-68.9z"/>
			<path class="st7" d="M838.2-34.7c-8.8-1.1-17.2-4.7-22.4-12.1c-5.3-7.6-7.4-17.2-6.8-26.3c0.6-8.7,3-17.5,9.6-23.6
				c2.4-2.3,5.2-4.1,8.1-5.7c-5.5,1.2-10.7,3.5-15.2,7c-18.8,14.8-32.2,49.3-9.9,65.2c2.5,1.8,5.4,3.3,8.4,4.6
				c-0.8,3.7-2.6,10-6.2,12.4c0,0,13.4,1,18.4-8.8c19.8,3.7,43.4-1.3,52.5-17.6c0.9-1.6,1.7-3.3,2.4-5
				C866.5-35.9,851.5-33,838.2-34.7z"/>
			<g>
				<circle class="st8" cx="820.8" cy="-59.6" r="3.7"/>
				<circle class="st8" cx="837.2" cy="-60.3" r="3.7"/>
				<circle class="st8" cx="853.5" cy="-61" r="3.7"/>
			</g>
		</g>
		<g>
			<path class="st9" d="M522-90.6l-79.7,6.2c-5.4,0-9.8,4.4-9.8,9.8l6.2,39c0,5.4,4.4,9.8,9.8,9.8l3.8,0.2l0,0c0,0,2.2,8.4-2.1,12.8
				c0,0,13-3.2,15.1-12l50.5,3.1c5.4,0,9.8-4.4,9.8-9.8l6.2-49.4C531.8-86.2,527.4-90.6,522-90.6z"/>
			<path class="st10" d="M531.6-82.7c-0.1,2.7-0.3,5.3-0.6,8c-0.6,5.5-1.4,10.9-2.4,16.3c-0.9,4.9-1.9,9.9-4.1,14.4
				c-3.7,7.5-11.8,10.3-19.6,11.5c-8.2,1.2-16.4,0.8-24.7,1.3c-4.5,0.3-9.1,0.6-13.6,0.4c-3.9-0.2-8.3-0.5-11.8-2.5
				c-6.7-3.9-7.8-13.6-8.7-20.5c-1-7.9-3-18.1,2.4-24.9c2.5-3.1,5.8-4.5,9.5-5.8c1.2-0.4,2.8-0.9,4.3-1.4l-19.9,1.5
				c-5.4,0-9.8,4.4-9.8,9.8l6.2,39c0,5.4,4.4,9.8,9.8,9.8l3.8,0.2l0,0c0,0,2.2,8.4-2.1,12.8c0,0,13-3.2,15.1-12l50.5,3.1
				c5.4,0,9.8-4.4,9.8-9.8l6.2-49.4C531.8-81.5,531.7-82.1,531.6-82.7z"/>
			<g>
				<path class="st8" d="M512.4-64.6c0,1.1-0.9,2-2,2h-56.5c-1.1,0-2-0.9-2-2l0,0c0-1.1,0.9-2,2-2h56.4
					C511.5-66.6,512.4-65.7,512.4-64.6L512.4-64.6z"/>
				<path class="st8" d="M512.4-56.2c0,1.1-0.9,2-2,2h-56.5c-1.1,0-2-0.9-2-2l0,0c0-1.1,0.9-2,2-2h56.4
					C511.5-58.2,512.4-57.3,512.4-56.2L512.4-56.2z"/>
				<path class="st8" d="M512.4-47.7c0,1.1-0.9,2-2,2h-56.5c-1.1,0-2-0.9-2-2l0,0c0-1.1,0.9-2,2-2h56.4
					C511.5-49.7,512.4-48.8,512.4-47.7L512.4-47.7z"/>
			</g>
		</g>
		<g>
			<path class="st11" d="M269.6-91.6c7.1-8.4,19.9-7.4,29.8-6.5c15.5,1.4,31.2,1.8,46.6,4.2c21.4,3.4,26.5,16.4,26.5,36.3
				c0,11.7-3.2,24.3-14.1,30.3c-1.3,0.7-2.7,1.3-4.1,1.9c0.1,3.4,1.4,8.3,7.2,11.9c0,0-15,1.6-18.7-8.6c-14.5,2.6-31,1-44.4,0.4
				c-17.5-0.8-35-6.6-38.5-26.1C257.2-63.1,261.8-82.3,269.6-91.6z"/>
			<path class="st12" d="M269.1-90.9c-1.8,3.5-3.1,7.2-3.6,11.1c-0.7,5.3-0.6,10.8-0.2,16.1c0.7,8.7,3,17.5,10.4,22.9
				c6.8,5,15.4,6.7,23.6,8.4c7.1,1.4,14.6,2.2,21.8,2.1c7.2-0.1,14.8-0.9,21.3-4.1c6.3-3.1,11-8.4,12.8-15.2s2.4-14.1,1.9-21.2
				c-0.5-6.8-2-14-6.1-19.7c-0.7-1-1.6-2-2.4-2.9c19.1,4,23.9,16.7,23.8,35.8c0,11.7-3.2,24.3-14.1,30.3c-1.3,0.7-2.7,1.3-4.1,1.9
				c0.1,3.4,1.4,8.3,7.2,11.9c0,0-15,1.6-18.7-8.6c-14.5,2.6-31,1-44.4,0.4c-17.4-0.8-34.9-6.6-38.4-26.1
				C257.2-62.8,261.6-81.5,269.1-90.9z"/>
			<g>
				<path class="st8" d="M310.6-70c0,1.3,1.1,2.4,2.4,2.4h33.1c1.3,0,2.4-1.1,2.4-2.4l0,0c0-1.3-1.1-2.4-2.4-2.4h-33
					C311.7-72.5,310.6-71.4,310.6-70L310.6-70z"/>
				<path class="st8" d="M283.1-70c0,1.3,1.1,2.4,2.4,2.4h17.9c1.3,0,2.4-1.1,2.4-2.4l0,0c0-1.3-1.1-2.4-2.4-2.4h-17.9
					C284.2-72.5,283.1-71.4,283.1-70L283.1-70z"/>
				<path class="st8" d="M322.5-58.5c0,1.3,1.1,2.4,2.4,2.4H346c1.3,0,2.4-1.1,2.4-2.4l0,0c0-1.3-1.1-2.4-2.4-2.4h-21
					C323.6-60.9,322.5-59.8,322.5-58.5L322.5-58.5z"/>
				<path class="st8" d="M283.1-58.5c0,1.3,1.1,2.4,2.4,2.4h30.4c1.3,0,2.4-1.1,2.4-2.4l0,0c0-1.3-1.1-2.4-2.4-2.4h-30.4
					C284.2-60.9,283.1-59.8,283.1-58.5L283.1-58.5z"/>
				<path class="st8" d="M310.6-47.6c0,1.3,1.1,2.4,2.4,2.4h15.3c1.3,0,2.4-1.1,2.4-2.4l0,0c0-1.3-1.1-2.4-2.4-2.4h-15.2
					C311.7-50,310.6-48.9,310.6-47.6L310.6-47.6z"/>
				<path class="st8" d="M332.7-47.6c0,1.3,1.1,2.4,2.4,2.4h11c1.3,0,2.4-1.1,2.4-2.4l0,0c0-1.3-1.1-2.4-2.4-2.4h-11
					C333.8-50,332.7-48.9,332.7-47.6L332.7-47.6z"/>
				<path class="st8" d="M283.1-47.6c0,1.3,1.1,2.4,2.4,2.4h17.9c1.3,0,2.4-1.1,2.4-2.4l0,0c0-1.3-1.1-2.4-2.4-2.4h-17.9
					C284.2-50,283.1-48.9,283.1-47.6L283.1-47.6z"/>
			</g>
		</g>
		<g>
			<path class="st13" d="M709.8-69.4c0-9.6-7.8-17.4-17.4-17.4c-2.2,0-4.3,0.4-6.2,1.2c-1.8-10-10.6-17.5-21-17.5
				c-9.2,0-17,5.8-20.1,13.9c-1.5-1.1-3.3-1.7-5.3-1.7c-5.1,0-9.1,4.1-9.1,9.1c0,0.6,0.1,1.1,0.2,1.6c-1.8-1-3.9-1.6-6.1-1.6
				c-6.8,0-12.3,5.5-12.3,12.3c0,5.4,3.5,10,8.4,11.7c-2.7,3.1-4.4,7.1-4.4,11.5c0,9.6,7.8,17.4,17.4,17.4c2.5,0,4.9-0.6,7.1-1.5
				c0.7,9,8.2,16,17.3,16c7.9,0,14.6-5.3,16.7-12.5c3.1,2.7,7.1,4.4,11.5,4.4c9.6,0,17.4-7.8,17.4-17.4c0-5.3-2.4-10-6.1-13.2
				C704.8-55.2,709.8-61.7,709.8-69.4z"/>
			<path class="st14" d="M709.8-69.4c0-8.2-5.6-15-13.2-16.8c3.7,3.5,6.5,8.7,6.6,13.8s-1.5,11.2-5.7,14.4c-1.8,1.4-5.5,3.1-7.9,2.9
				c3.3,4.3,4.5,9.7-0.3,14c-5.4,4.8-12,4.3-16.3-0.9c0.1,4.4-1.3,10-5.2,12.5c-3.2,2-7.7,3.1-11.4,2.7c-7.6-0.9-12-6.4-12.7-13.8
				c0,0.4-2.4,2-2.8,2.2c-0.9,0.7-1.9,1.2-3,1.6c-7.2,2.6-16.5-3.4-15.7-11.3c0.3-2.6,1.2-6,2.5-8.3c0.6-1,2.3-3.6,3.8-3.5
				c-9.6-0.6-11.8-16.7-1.1-21.5c-0.8-0.2-1.7-0.3-2.6-0.3c-6.8,0-12.3,5.5-12.3,12.3c0,5.4,3.5,10,8.4,11.7
				c-2.7,3.1-4.4,7.1-4.4,11.5c0,9.6,7.8,17.4,17.4,17.4c2.5,0,4.9-0.6,7.1-1.5c0.7,9,8.2,16,17.3,16c7.9,0,14.6-5.3,16.7-12.5
				c3.1,2.7,7.1,4.4,11.5,4.4c9.6,0,17.4-7.8,17.4-17.4c0-5.3-2.4-10-6.1-13.2C704.8-55.2,709.8-61.7,709.8-69.4z"/>
			
				<ellipse transform="matrix(-0.7683 -0.6401 0.6401 -0.7683 1125.4628 362.7512)" class="st15" cx="628.4" cy="-22.3" rx="6.1" ry="4.7"/>
			
				<ellipse transform="matrix(-0.7683 -0.64 0.64 -0.7683 1108.1353 367.105)" class="st15" cx="620.5" cy="-17" rx="4.7" ry="3.6"/>
			
				<ellipse transform="matrix(-0.7683 -0.6401 0.6401 -0.7683 1094.0638 367.7764)" class="st15" cx="613.6" cy="-14.1" rx="3.3" ry="2.5"/>
			<g>
				<circle class="st8" cx="646.2" cy="-56.9" r="3.4"/>
				<circle class="st8" cx="661.2" cy="-57.6" r="3.4"/>
				<circle class="st8" cx="676.1" cy="-58.2" r="3.4"/>
			</g>
		</g>
	</g>
</g>
</svg>
